# Blender v2.82 (sub 7) OBJ File: ''
# www.blender.org
o Cube_Cube.003
v -1.000000 1.389356 -1.000000
v -1.000000 1.561780 -1.000000
v 1.000000 1.389356 -1.000000
v 1.000000 1.561780 -1.000000
v -1.000000 1.389356 1.000000
v -1.000000 1.561780 1.000000
v 1.000000 1.389356 1.000000
v 1.000000 1.561780 1.000000
v -1.000000 -0.052105 -1.000000
v -1.000000 -0.052105 -0.832708
v -1.000000 -0.052105 1.000000
v -1.000000 -0.052105 0.832708
v 1.000000 1.389356 0.832708
v 1.000000 1.389356 -0.832708
v 1.000000 1.561780 -0.832708
v 1.000000 1.561780 0.832708
v -1.000000 1.389356 0.832708
v -1.000000 1.389356 -0.832708
v -1.000000 1.561780 -0.832708
v -1.000000 1.561780 0.832708
v 1.000000 -0.052105 1.000000
v 1.000000 -0.052105 0.832708
v 1.000000 -0.052105 -0.832708
v 1.000000 -0.052105 -1.000000
v 0.841172 1.389356 -1.000000
v -0.841172 1.389356 -1.000000
v -0.841172 1.561780 -1.000000
v 0.841172 1.561780 -1.000000
v -0.841172 1.389356 1.000000
v 0.841172 1.389356 1.000000
v -0.841172 1.561780 0.832708
v 0.841172 1.561780 0.832708
v 0.841172 1.561780 -0.832708
v -0.841172 1.561780 -0.832708
v -0.841172 1.389356 -0.832708
v 0.841172 1.389356 -0.832708
v 0.841172 1.389356 0.832708
v -0.841172 1.389356 0.832708
v -0.841172 -0.052105 -0.832708
v -0.841172 -0.052105 -1.000000
v 0.841172 -0.052105 -1.000000
v 0.841172 -0.052105 -0.832708
v -0.841172 -0.052105 1.000000
v -0.841172 -0.052105 0.832708
v 0.841172 -0.052105 0.832708
v 0.841172 -0.052105 1.000000
v 1.000000 3.371826 -1.000000
v 1.000000 3.371826 -0.832708
v -1.000000 3.371826 -0.832708
v -1.000000 3.371826 -1.000000
v -0.841172 3.371826 -1.000000
v 0.841172 3.371826 -1.000000
v 0.841172 3.371826 -0.832708
v -0.841172 3.371826 -0.832708
v -1.000000 3.202499 -0.832708
v -0.841172 3.202499 -0.832708
v -1.000000 3.202499 -1.000000
v -0.841172 3.202499 -1.000000
v 1.000000 3.202499 -1.000000
v 1.000000 3.202499 -0.832708
v 0.841172 3.202499 -0.832708
v 0.841172 3.202499 -1.000000
v -0.841172 1.540927 0.832708
v 0.841172 1.540927 0.832708
v 0.841172 1.540927 -0.832708
v -0.841172 1.540927 -0.832708
v 0.841172 1.561780 -0.861181
v -0.841172 1.561780 -0.861181
v -0.841172 3.202499 -0.861181
v 0.841172 3.202499 -0.861181
v -0.841172 1.433071 -0.832708
v 0.841172 1.433071 -0.832708
v 0.841172 1.433071 0.832708
v -0.841172 1.433071 0.832708
v -0.841172 1.561780 -0.977940
v 0.841172 1.561780 -0.977940
v -0.841172 3.202499 -0.977940
v 0.841172 3.202499 -0.977940
v -1.017071 1.389356 -1.000000
v -1.039446 1.411730 -0.977626
v -1.039446 1.539406 -0.977626
v -1.017071 1.561780 -1.000000
v -1.017071 1.561780 1.000000
v -1.039446 1.539406 0.977626
v -1.039446 1.411730 0.977626
v -1.017071 1.389356 1.000000
v -1.017071 1.561780 -0.832708
v -1.039446 1.539406 -0.855082
v -1.039446 1.411730 -0.855082
v -1.017071 1.389356 -0.832708
v -1.017071 1.389356 0.832708
v -1.039446 1.411730 0.855082
v -1.039446 1.539406 0.855082
v -1.017071 1.561780 0.832708
v 1.006163 1.561780 -1.000000
v 1.028537 1.539406 -0.977626
v 1.028537 1.411730 -0.977626
v 1.006163 1.389356 -1.000000
v 1.028537 1.539406 0.977626
v 1.006163 1.561780 1.000000
v 1.006163 1.389356 1.000000
v 1.028537 1.411730 0.977626
v 1.006163 1.561780 0.832708
v 1.028537 1.539406 0.855082
v 1.028537 1.411730 0.855082
v 1.006163 1.389356 0.832708
v 1.006163 1.389356 -0.832708
v 1.028537 1.411730 -0.855082
v 1.028537 1.539406 -0.855082
v 1.006163 1.561780 -0.832708
v 1.000000 3.538560 -1.000000
v 0.952516 3.586044 -0.952516
v 0.952516 3.586044 -0.880192
v 1.000000 3.538560 -0.832708
v -1.000000 3.538560 -0.832708
v -0.952516 3.586044 -0.880192
v -0.952516 3.586044 -0.952516
v -1.000000 3.538560 -1.000000
v -0.841172 3.538560 -1.000000
v -0.888656 3.586044 -0.952516
v -0.888656 3.586044 -0.880192
v -0.841172 3.538560 -0.832708
v 0.841172 3.538560 -0.832708
v 0.888656 3.586044 -0.880192
v 0.888656 3.586044 -0.952516
v 0.841172 3.538560 -1.000000
v 0.841172 1.561780 0.951623
v 0.841172 1.513404 1.000000
v 0.889549 1.561780 1.000000
v -0.841172 1.513404 1.000000
v -0.841172 1.561780 0.951623
v -0.889549 1.561780 1.000000
vt 0.375000 0.519853
vt 0.375000 0.500000
vt 0.375000 0.500000
vt 0.854088 0.519853
vt 0.645911 0.500000
vt 0.854088 0.500000
vt 0.125000 0.519853
vt 0.145911 0.519853
vt 0.145911 0.519853
vt 0.625000 0.736194
vt 0.625000 0.750000
vt 0.375000 0.750000
vt 0.625000 0.979089
vt 0.375000 0.979089
vt 0.375000 0.979089
vt 0.375000 0.730147
vt 0.554858 0.519853
vt 0.554858 0.730147
vt 0.631047 0.730147
vt 0.645911 0.730147
vt 0.645911 0.750000
vt 0.625000 0.250000
vt 0.625000 0.270911
vt 0.625000 0.270911
vt 0.375000 0.250000
vt 0.375000 0.270911
vt 0.375000 0.270911
vt 0.625000 0.000000
vt 0.625000 0.019853
vt 0.625000 0.019853
vt 0.625000 1.000000
vt 0.625000 0.979089
vt 0.375000 0.019853
vt 0.375000 0.000000
vt 0.375000 0.000000
vt 0.145911 0.730147
vt 0.125000 0.730147
vt 0.125000 0.730147
vt 0.354089 0.519853
vt 0.145911 0.500000
vt 0.354089 0.500000
vt 0.145911 0.730147
vt 0.125000 0.750000
vt 0.625000 0.770911
vt 0.375000 0.479089
vt 0.625000 0.270911
vt 0.625000 0.479089
vt 0.854088 0.750000
vt 0.854088 0.730147
vt 0.354089 0.750000
vt 0.354089 0.730147
vt 0.625000 0.230147
vt 0.375000 0.230147
vt 0.625000 0.513806
vt 0.625000 0.019853
vt 0.645911 0.519853
vt 0.645911 0.519853
vt 0.354089 0.519853
vt 0.631047 0.519853
vt 0.854088 0.730147
vt 0.854088 0.750000
vt 0.854088 0.750000
vt 0.625000 0.000000
vt 0.354089 0.519853
vt 0.354089 0.500000
vt 0.375000 0.730147
vt 0.354089 0.750000
vt 0.354089 0.730147
vt 0.145911 0.500000
vt 0.125000 0.519853
vt 0.125000 0.500000
vt 0.375000 0.250000
vt 0.375000 0.770911
vt 0.375000 0.750000
vt 0.375000 0.230147
vt 0.375000 0.519853
vt 0.375000 1.000000
vt 0.375000 0.979089
vt 0.375000 0.479089
vt 0.145911 0.750000
vt 0.625000 0.000000
vt 0.625000 0.019853
vt 0.854088 0.730147
vt 0.875000 0.519853
vt 0.875000 0.730147
vt 0.625000 0.979089
vt 0.625000 1.000000
vt 0.625000 1.000000
vt 0.854088 0.519853
vt 0.854088 0.500000
vt 0.854088 0.519853
vt 0.625000 0.230147
vt 0.625000 0.250000
vt 0.625000 0.230147
vt 0.625000 0.230147
vt 0.625000 0.250000
vt 0.854088 0.519853
vt 0.625000 0.250000
vt 0.854088 0.750000
vt 0.869064 0.736082
vt 0.860024 0.744064
vt 0.860024 0.736082
vt 0.854088 0.730147
vt 0.875000 0.519853
vt 0.869064 0.505936
vt 0.860024 0.513918
vt 0.860024 0.505935
vt 0.625000 0.979089
vt 0.625000 1.000000
vt 0.854088 0.500000
vt 0.854088 0.519853
vt 0.854088 0.519853
vt 0.645911 0.730147
vt 0.854088 0.730147
vt 0.854088 0.519853
vt 0.854088 0.730147
vt 0.854088 0.730147
vt 0.145911 0.730147
vt 0.145911 0.519853
vt 0.354089 0.730147
vt 0.625000 0.019853
vt 0.625000 0.230147
vt 0.625000 0.019853
vt 0.375000 1.000000
vt 0.625000 0.750000
vt 0.592559 0.752797
vt 0.407440 0.768115
vt 0.407440 0.752797
vt 0.592559 0.981885
vt 0.407440 0.997203
vt 0.407440 0.981885
vt 0.592559 0.252797
vt 0.407440 0.268115
vt 0.407440 0.252797
vt 0.375000 0.750000
vt 0.375000 0.770911
vt 0.625000 0.770911
vt 0.625000 0.250000
vt 0.625000 0.500000
vt 0.645911 0.500000
vt 0.625000 0.270911
vt 0.375000 0.250000
vt 0.625000 0.500000
vt 0.375000 0.500000
vt 0.592559 0.481885
vt 0.407440 0.497203
vt 0.407440 0.481885
vt 0.375000 0.479089
vt 0.592559 0.997203
vt 0.592559 0.768115
vt 0.645911 0.750000
vt 0.627797 0.750000
vt 0.625000 1.000000
vt 0.592559 0.497203
vt 0.625000 0.479089
vt 0.592559 0.268115
vt 0.643115 0.500000
vt 0.625000 0.000000
vt 0.854088 0.500000
vt 0.875000 0.500000
vt 0.875000 0.750000
vt 0.875000 0.730147
vt 0.869064 0.744064
vt 0.869064 0.513918
vt 0.625000 0.270911
vt 0.625000 0.519853
vt 0.625000 0.730147
vt 0.375000 0.019853
vt 0.145911 0.750000
vt 0.375000 0.270911
vt 0.375000 0.770911
vt 0.375000 1.000000
vt 0.625000 0.000000
vt 0.625000 0.230147
vt 0.625000 0.979089
vt 0.643115 0.750000
vt 0.627797 0.500000
vt 0.375000 0.000000
vn 0.0000 0.0000 1.0000
vn 0.0000 1.0000 0.0000
vn -1.0000 0.0000 0.0000
vn 1.0000 0.0000 0.0000
vn 0.0000 -1.0000 0.0000
vn 0.0000 0.0000 -1.0000
vn -0.7071 0.0000 -0.7071
vn -0.7071 0.0000 0.7071
vn -0.7071 -0.7071 0.0000
vn -0.7071 0.7071 0.0000
vn 0.7071 0.0000 -0.7071
vn 0.7071 0.0000 0.7071
vn 0.7071 -0.7071 0.0000
vn 0.7071 0.7071 0.0000
vn 0.0000 0.7071 -0.7071
vn 0.0000 0.7071 0.7071
vn -0.5773 0.5773 0.5774
vn 0.5773 0.5773 0.5774
s off
f 30/1/1 21/2/1 7/3/1
f 33/4/2 16/5/2 15/6/2
f 25/7/3 42/8/3 36/9/3
f 132/10/1 6/11/1 5/12/1
f 19/13/1 90/14/1 18/15/1
f 29/16/1 128/17/1 130/18/1
f 131/19/2 31/20/2 20/21/2
f 59/22/4 48/23/4 60/24/4
f 3/25/5 107/26/5 14/27/5
f 57/28/6 51/29/6 58/30/6
f 2/31/2 87/32/2 19/13/2
f 26/33/6 9/34/6 1/35/6
f 35/36/4 40/37/4 26/38/4
f 37/39/5 14/40/5 13/41/5
f 39/42/5 9/43/5 40/37/5
f 18/15/3 20/44/3 19/13/3
f 13/45/4 15/46/4 16/47/4
f 19/48/2 31/20/2 34/49/2
f 17/50/5 35/36/5 38/51/5
f 28/52/6 3/25/6 25/53/6
f 128/17/1 7/3/1 129/54/1
f 25/53/6 27/55/6 28/52/6
f 33/4/3 64/56/3 32/57/3
f 38/51/6 73/58/6 37/39/6
f 26/38/5 36/9/5 35/36/5
f 38/51/5 30/1/5 29/16/5
f 16/5/2 127/59/2 129/54/2
f 56/60/1 49/61/1 55/62/1
f 2/63/6 26/33/6 1/35/6
f 21/2/5 45/64/5 22/65/5
f 43/66/5 12/67/5 44/68/5
f 23/69/5 41/70/5 24/71/5
f 14/27/4 24/72/4 3/25/4
f 29/16/4 44/68/4 38/51/4
f 17/73/3 11/74/3 5/12/3
f 3/25/6 41/75/6 25/53/6
f 37/39/3 46/76/3 30/1/3
f 38/51/6 12/67/6 17/50/6
f 36/9/1 23/69/1 14/40/1
f 5/12/1 43/66/1 29/16/1
f 1/77/3 10/78/3 18/15/3
f 7/3/4 22/79/4 13/45/4
f 18/80/1 39/42/1 35/36/1
f 13/41/6 45/64/6 37/39/6
f 50/81/6 119/82/6 51/29/6
f 54/83/2 52/84/2 51/85/2
f 55/86/3 50/87/3 57/88/3
f 61/89/1 54/83/1 56/60/1
f 60/90/1 53/91/1 61/89/1
f 62/92/6 47/93/6 59/22/6
f 58/30/6 52/94/6 62/92/6
f 28/52/3 78/95/3 62/92/3
f 28/52/6 59/22/6 4/96/6
f 15/6/1 61/89/1 33/4/1
f 56/60/5 70/97/5 61/89/5
f 19/13/3 57/88/3 2/31/3
f 34/49/1 55/62/1 19/48/1
f 2/63/6 58/30/6 27/55/6
f 4/96/4 60/24/4 15/46/4
f 52/94/6 111/98/6 47/93/6
f 54/83/1 115/99/1 49/61/1
f 120/100/2 116/101/2 121/102/2
f 51/85/4 122/103/4 54/83/4
f 53/91/3 126/104/3 52/84/3
f 112/105/2 124/106/2 113/107/2
f 49/108/3 118/109/3 50/87/3
f 48/110/1 123/111/1 53/91/1
f 65/112/2 63/113/2 64/56/2
f 34/49/1 65/112/1 33/4/1
f 32/57/6 63/113/6 31/20/6
f 31/20/4 66/114/4 34/49/4
f 67/115/1 69/116/1 68/117/1
f 33/4/2 68/117/2 34/49/2
f 34/49/4 69/116/4 56/60/4
f 61/89/3 67/115/3 33/4/3
f 73/58/5 71/118/5 72/119/5
f 36/9/1 71/118/1 35/36/1
f 35/36/4 74/120/4 38/51/4
f 37/39/3 72/119/3 36/9/3
f 75/121/6 78/95/6 76/122/6
f 62/92/5 77/123/5 58/30/5
f 27/55/2 76/122/2 28/52/2
f 58/30/4 75/121/4 27/55/4
f 18/15/5 79/124/5 1/77/5
f 20/21/2 83/125/2 6/11/2
f 84/126/3 92/127/3 85/128/3
f 88/129/3 80/130/3 89/131/3
f 96/132/4 108/133/4 97/134/4
f 6/11/1 86/135/1 5/12/1
f 5/12/5 91/136/5 17/73/5
f 17/73/6 94/137/6 20/44/6
f 15/46/2 95/138/2 4/96/2
f 8/139/2 103/140/2 16/5/2
f 14/27/1 110/141/1 15/46/1
f 4/96/6 98/142/6 3/25/6
f 7/3/1 100/143/1 8/139/1
f 13/45/5 101/144/5 7/3/5
f 104/145/4 102/146/4 105/147/4
f 16/47/6 106/148/6 13/45/6
f 81/149/7 79/124/7 80/130/7
f 85/128/8 83/125/8 84/126/8
f 89/131/8 87/32/8 88/129/8
f 93/150/7 91/136/7 92/127/7
f 86/135/9 92/127/9 91/136/9
f 94/151/10 84/152/10 83/125/10
f 80/130/9 90/14/9 89/131/9
f 82/153/10 88/129/10 87/32/10
f 97/134/11 95/138/11 96/132/11
f 101/144/12 99/154/12 100/143/12
f 105/147/11 103/155/11 104/145/11
f 109/156/12 107/26/12 108/133/12
f 108/133/13 98/142/13 97/134/13
f 110/141/14 96/132/14 95/138/14
f 102/146/13 106/148/13 105/147/13
f 100/143/14 104/157/14 103/140/14
f 1/35/6 82/158/6 2/63/6
f 112/105/14 114/159/14 111/160/14
f 116/101/10 118/161/10 115/99/10
f 120/100/14 122/103/14 119/162/14
f 124/106/10 126/104/10 123/111/10
f 120/100/15 118/161/15 117/163/15
f 112/105/15 126/104/15 125/164/15
f 114/159/16 124/106/16 123/111/16
f 122/103/16 116/101/16 115/99/16
f 47/93/4 114/165/4 48/23/4
f 127/59/17 128/166/17 129/54/17
f 130/18/18 131/167/18 132/10/18
f 131/19/16 128/17/16 127/59/16
f 131/19/2 32/57/2 31/20/2
f 30/1/1 46/76/1 21/2/1
f 33/4/2 32/57/2 16/5/2
f 25/7/3 41/70/3 42/8/3
f 5/12/1 29/16/1 130/18/1
f 130/18/1 132/10/1 5/12/1
f 19/13/1 87/32/1 90/14/1
f 29/16/1 30/1/1 128/17/1
f 6/11/2 132/10/2 20/21/2
f 132/10/2 131/19/2 20/21/2
f 59/22/4 47/93/4 48/23/4
f 3/25/5 98/142/5 107/26/5
f 57/28/6 50/81/6 51/29/6
f 2/31/2 82/153/2 87/32/2
f 26/33/6 40/168/6 9/34/6
f 35/36/4 39/42/4 40/37/4
f 37/39/5 36/9/5 14/40/5
f 39/42/5 10/169/5 9/43/5
f 18/15/3 17/73/3 20/44/3
f 13/45/4 14/27/4 15/46/4
f 19/48/2 20/21/2 31/20/2
f 17/50/5 18/80/5 35/36/5
f 28/52/6 4/96/6 3/25/6
f 30/1/1 7/3/1 128/17/1
f 7/3/1 8/139/1 129/54/1
f 25/53/6 26/33/6 27/55/6
f 33/4/3 65/112/3 64/56/3
f 38/51/6 74/120/6 73/58/6
f 26/38/5 25/7/5 36/9/5
f 38/51/5 37/39/5 30/1/5
f 129/54/2 8/139/2 16/5/2
f 16/5/2 32/57/2 127/59/2
f 56/60/1 54/83/1 49/61/1
f 2/63/6 27/55/6 26/33/6
f 21/2/5 46/76/5 45/64/5
f 43/66/5 11/74/5 12/67/5
f 23/69/5 42/8/5 41/70/5
f 14/27/4 23/170/4 24/72/4
f 29/16/4 43/66/4 44/68/4
f 17/73/3 12/171/3 11/74/3
f 3/25/6 24/72/6 41/75/6
f 37/39/3 45/64/3 46/76/3
f 38/51/6 44/68/6 12/67/6
f 36/9/1 42/8/1 23/69/1
f 5/12/1 11/74/1 43/66/1
f 1/77/3 9/172/3 10/78/3
f 7/3/4 21/2/4 22/79/4
f 18/80/1 10/169/1 39/42/1
f 13/41/6 22/65/6 45/64/6
f 50/81/6 118/173/6 119/82/6
f 54/83/2 53/91/2 52/84/2
f 55/86/3 49/108/3 50/87/3
f 61/89/1 53/91/1 54/83/1
f 60/90/1 48/110/1 53/91/1
f 62/92/6 52/94/6 47/93/6
f 58/30/6 51/29/6 52/94/6
f 28/52/3 76/122/3 78/95/3
f 28/52/6 62/92/6 59/22/6
f 15/6/1 60/90/1 61/89/1
f 56/60/5 69/116/5 70/97/5
f 19/13/3 55/86/3 57/88/3
f 34/49/1 56/60/1 55/62/1
f 2/63/6 57/28/6 58/30/6
f 4/96/4 59/22/4 60/24/4
f 52/94/6 126/174/6 111/98/6
f 54/83/1 122/103/1 115/99/1
f 120/100/2 117/163/2 116/101/2
f 51/85/4 119/162/4 122/103/4
f 53/91/3 123/111/3 126/104/3
f 112/105/2 125/164/2 124/106/2
f 49/108/3 115/175/3 118/109/3
f 48/110/1 114/159/1 123/111/1
f 65/112/2 66/114/2 63/113/2
f 34/49/1 66/114/1 65/112/1
f 32/57/6 64/56/6 63/113/6
f 31/20/4 63/113/4 66/114/4
f 67/115/1 70/97/1 69/116/1
f 33/4/2 67/115/2 68/117/2
f 34/49/4 68/117/4 69/116/4
f 61/89/3 70/97/3 67/115/3
f 73/58/5 74/120/5 71/118/5
f 36/9/1 72/119/1 71/118/1
f 35/36/4 71/118/4 74/120/4
f 37/39/3 73/58/3 72/119/3
f 75/121/6 77/123/6 78/95/6
f 62/92/5 78/95/5 77/123/5
f 27/55/2 75/121/2 76/122/2
f 58/30/4 77/123/4 75/121/4
f 18/15/5 90/14/5 79/124/5
f 20/21/2 94/151/2 83/125/2
f 84/126/3 93/150/3 92/127/3
f 88/129/3 81/149/3 80/130/3
f 96/132/4 109/156/4 108/133/4
f 6/11/1 83/125/1 86/135/1
f 5/12/5 86/135/5 91/136/5
f 17/73/6 91/136/6 94/137/6
f 15/46/2 110/141/2 95/138/2
f 8/139/2 100/143/2 103/140/2
f 14/27/1 107/26/1 110/141/1
f 4/96/6 95/138/6 98/142/6
f 7/3/1 101/144/1 100/143/1
f 13/45/5 106/148/5 101/144/5
f 104/145/4 99/154/4 102/146/4
f 16/47/6 103/155/6 106/148/6
f 81/149/7 82/153/7 79/124/7
f 85/128/8 86/135/8 83/125/8
f 89/131/8 90/14/8 87/32/8
f 93/150/7 94/137/7 91/136/7
f 86/135/9 85/128/9 92/127/9
f 94/151/10 93/176/10 84/152/10
f 80/130/9 79/124/9 90/14/9
f 82/153/10 81/149/10 88/129/10
f 97/134/11 98/142/11 95/138/11
f 101/144/12 102/146/12 99/154/12
f 105/147/11 106/148/11 103/155/11
f 109/156/12 110/141/12 107/26/12
f 108/133/13 107/26/13 98/142/13
f 110/141/14 109/156/14 96/132/14
f 102/146/13 101/144/13 106/148/13
f 100/143/14 99/177/14 104/157/14
f 1/35/6 79/178/6 82/158/6
f 112/105/14 113/107/14 114/159/14
f 116/101/10 117/163/10 118/161/10
f 120/100/14 121/102/14 122/103/14
f 124/106/10 125/164/10 126/104/10
f 120/100/15 119/162/15 118/161/15
f 112/105/15 111/160/15 126/104/15
f 114/159/16 113/107/16 124/106/16
f 122/103/16 121/102/16 116/101/16
f 47/93/4 111/98/4 114/165/4
f 131/19/16 130/18/16 128/17/16
f 131/19/2 127/59/2 32/57/2
