# Blender v2.82 (sub 7) OBJ File: ''
# www.blender.org
mtllib shelf0.mtl
o Cube
v 2.346025 3.165750 -0.697975
v 2.346025 -3.157025 -0.697975
v 2.346025 3.165750 0.697975
v 2.346025 -3.157025 0.697975
v -2.346025 3.165750 -0.697975
v -2.346025 -3.157025 -0.697975
v -2.346025 3.165750 0.697975
v -2.346025 -3.157025 0.697975
v 2.210324 2.662141 -0.697975
v 2.210324 -2.089629 -0.697975
v -2.346025 -2.272494 0.697975
v -2.346025 2.845006 0.697975
v 2.346025 2.845006 0.697975
v 2.346025 -2.272494 0.697975
v -2.210324 2.662141 -0.697975
v -2.210324 -2.089629 -0.697975
v 2.346025 2.845006 -0.697975
v 2.346025 -2.272494 -0.697975
v -2.346025 2.845006 -0.697975
v -2.346025 -2.272494 -0.697975
v 2.210324 2.662141 0.543142
v 2.210324 -2.089629 0.543142
v -2.210324 2.662141 0.543142
v -2.210324 -2.089629 0.543142
v 2.210324 0.286256 -0.697975
v 2.210324 0.286256 0.543142
v 2.210324 2.662141 -0.077417
v 2.210324 -2.089629 -0.077417
v 2.210324 0.286256 -0.077417
v 2.210324 -0.901687 -0.697975
v 2.210324 -0.901687 0.543142
v 2.210324 2.662141 0.232862
v 2.210324 -2.089629 -0.387696
v 2.210324 1.474198 -0.697975
v 2.210324 1.474198 0.543142
v 2.210324 2.662141 -0.387696
v 2.210324 -2.089629 0.232862
v 2.210324 0.286256 0.232862
v 2.210324 0.286256 -0.387696
vt 0.875000 0.500000
vt 0.625000 0.750000
vt 0.625000 0.500000
vt 0.541667 1.000000
vt 0.541667 0.750000
vt 0.625000 0.000000
vt 0.541667 0.250000
vt 0.541667 0.000000
vt 0.375000 0.500000
vt 0.125000 0.750000
vt 0.125000 0.500000
vt 0.541667 0.500000
vt 0.625000 0.250000
vt 0.458333 0.250000
vt 0.375000 0.250000
vt 0.538689 0.492770
vt 0.538689 0.492770
vt 0.538689 0.257230
vt 0.458333 0.500000
vt 0.375000 0.750000
vt 0.458333 0.750000
vt 0.458333 0.000000
vt 0.375000 0.000000
vt 0.375000 1.000000
vt 0.458333 1.000000
vt 0.480655 0.492770
vt 0.500000 0.492770
vt 0.461311 0.257230
vt 0.538689 0.257230
vt 0.538689 0.492770
vt 0.519344 0.492770
vt 0.500000 0.492770
vt 0.461311 0.257230
vt 0.461311 0.492770
vt 0.461311 0.492770
vt 0.500000 0.492770
vt 0.538689 0.492770
vt 0.519344 0.492770
vt 0.875000 0.750000
vt 0.625000 1.000000
vt 0.538689 0.492770
vt 0.461311 0.492770
vt 0.461311 0.492770
vt 0.480655 0.492770
vt 0.461311 0.492770
vt 0.500000 0.492770
vt 0.500000 0.492770
vn -0.5773 0.5773 -0.5773
vn 0.5773 0.5773 0.5773
vn 0.5773 0.5773 -0.5773
vn -0.7071 0.0000 0.7071
vn 0.7071 0.0000 0.7071
vn -0.5773 0.5773 0.5773
vn -0.7071 0.0000 -0.7071
vn 0.5773 -0.5773 -0.5773
vn -0.5773 -0.5773 0.5773
vn -0.5773 -0.5773 -0.5773
vn 0.7071 0.0000 -0.7071
vn -0.7071 -0.7071 0.0000
vn 0.5773 -0.5773 0.5773
vn 0.3015 0.3015 -0.9045
vn 0.3015 -0.3015 -0.9045
vn -0.3015 -0.3015 -0.9045
vn -0.7071 0.7071 0.0000
vn -1.0000 0.0000 0.0000
vn -0.3015 0.3015 -0.9045
usemtl Material
s 1
f 5/1/1 3/2/2 1/3/3
f 3/2/2 12/4/4 13/5/5
f 7/6/6 19/7/7 12/8/4
f 2/9/8 8/10/9 6/11/10
f 1/3/3 13/5/5 17/12/11
f 5/13/1 17/12/11 19/7/7
f 20/14/7 2/9/8 6/15/10
f 32/16/12 21/17/10 23/18/8
f 18/19/11 4/20/13 2/9/8
f 17/12/11 14/21/5 18/19/11
f 11/22/4 6/15/10 8/23/9
f 12/8/4 20/14/7 11/22/4
f 14/21/5 8/24/9 4/20/13
f 13/5/5 11/25/4 14/21/5
f 18/19/11 30/26/7 25/27/7
f 16/28/14 19/7/7 15/29/15
f 16/28/14 18/19/11 20/14/7
f 9/30/16 19/7/7 17/12/11
f 23/18/8 35/31/7 26/32/7
f 15/29/15 24/33/3 16/28/14
f 28/34/17 33/35/17 16/28/14
f 39/36/18 30/26/7 33/35/17
f 36/37/12 34/38/7 39/36/18
f 5/1/1 7/39/6 3/2/2
f 3/2/2 7/40/6 12/4/4
f 7/6/6 5/13/1 19/7/7
f 2/9/8 4/20/13 8/10/9
f 1/3/3 3/2/2 13/5/5
f 5/13/1 1/3/3 17/12/11
f 20/14/7 18/19/11 2/9/8
f 23/18/8 15/29/15 27/41/12
f 15/29/15 9/30/16 36/37/12
f 36/37/12 27/41/12 15/29/15
f 27/41/12 32/16/12 23/18/8
f 18/19/11 14/21/5 4/20/13
f 17/12/11 13/5/5 14/21/5
f 11/22/4 20/14/7 6/15/10
f 12/8/4 19/7/7 20/14/7
f 14/21/5 11/25/4 8/24/9
f 13/5/5 12/4/4 11/25/4
f 18/19/11 10/42/19 30/26/7
f 25/27/7 34/38/7 17/12/11
f 34/38/7 9/30/16 17/12/11
f 25/27/7 17/12/11 18/19/11
f 16/28/14 20/14/7 19/7/7
f 16/28/14 10/42/19 18/19/11
f 9/30/16 15/29/15 19/7/7
f 22/43/1 24/33/3 31/44/7
f 24/33/3 23/18/8 26/32/7
f 31/44/7 24/33/3 26/32/7
f 23/18/8 21/17/10 35/31/7
f 15/29/15 23/18/8 24/33/3
f 33/35/17 10/42/19 16/28/14
f 16/28/14 24/33/3 28/34/17
f 24/33/3 22/43/1 37/45/17
f 37/45/17 28/34/17 24/33/3
f 33/35/17 28/34/17 29/46/18
f 28/34/17 37/45/17 29/46/18
f 29/46/18 37/45/17 38/47/18
f 37/45/17 22/43/1 31/44/7
f 31/44/7 26/32/7 38/47/18
f 29/46/18 39/36/18 33/35/17
f 39/36/18 25/27/7 30/26/7
f 31/44/7 38/47/18 37/45/17
f 30/26/7 10/42/19 33/35/17
f 39/36/18 29/46/18 27/41/12
f 29/46/18 38/47/18 27/41/12
f 27/41/12 38/47/18 32/16/12
f 38/47/18 26/32/7 35/31/7
f 35/31/7 21/17/10 32/16/12
f 27/41/12 36/37/12 39/36/18
f 36/37/12 9/30/16 34/38/7
f 35/31/7 32/16/12 38/47/18
f 34/38/7 25/27/7 39/36/18
o Cube.001
v -4.095032 2.694069 -8.566381
v -4.095032 2.603417 -8.566381
v -3.894564 2.603417 -8.566381
v 3.889968 2.603417 -12.738783
v 4.031507 2.539892 -12.675258
v 3.889968 2.539892 -12.675258
v 3.889968 2.539892 -8.629906
v 3.695975 2.539892 -8.629906
v 3.889968 2.539892 -8.749174
v -3.894564 2.539892 -12.356196
v -3.689500 2.539892 -12.356196
v -3.894564 2.539892 -8.948968
v 3.889968 2.539892 -12.356196
v 3.889968 0.021079 -12.555990
v 3.889968 2.539892 -12.555990
v -3.689500 0.021079 -12.356196
v 3.695975 2.539892 -12.555990
v -3.689500 2.539892 -12.555990
v 3.695975 2.539892 -8.948968
v -3.689500 2.539892 -8.749174
v -3.689500 2.539892 -8.948968
v -3.689500 0.021079 -12.555990
v 3.695975 2.539892 -12.356196
v 3.889968 0.021079 -12.356196
v 4.095032 2.603417 -12.555990
v 4.095032 2.603417 -12.738783
v 4.095032 2.694069 -12.738783
v 3.889968 2.539892 -8.948968
v 4.031507 2.539892 -8.749174
v 4.031507 2.539892 -12.356196
v 4.095032 2.603417 -8.749174
v 4.031507 2.539892 -8.629906
v -4.031507 2.539892 -8.629906
v -3.894564 2.539892 -8.629906
v -4.031507 2.539892 -8.749174
v -4.031507 2.539892 -8.948968
v -3.894564 2.539892 -12.555990
v -4.031507 2.539892 -12.356196
v -4.031507 2.539892 -12.555990
v 3.695975 0.021079 -12.356196
v 3.695975 0.021079 -12.555990
v 3.889968 0.021079 -8.948969
v 3.695975 0.021079 -8.749174
v 3.695975 0.021079 -8.948969
v -3.894564 0.021079 -12.356196
v -3.894564 0.021079 -12.555990
v -3.689500 0.021079 -8.948969
v -3.894564 0.021079 -8.749174
v -3.894564 0.021079 -8.948969
v 3.695975 2.539892 -8.749174
v 3.889968 0.021079 -8.749174
v -3.894564 2.539892 -8.749174
v -3.689500 0.021079 -8.749174
v -4.095032 2.603417 -12.555990
v -4.031507 2.539892 -12.675258
v -4.095032 2.694069 -12.738783
v -4.095032 2.603417 -12.738783
v 4.095032 2.603417 -8.948968
v 4.095032 2.694069 -8.948968
v -3.689500 2.603417 -12.738783
v -3.894564 2.603417 -12.738783
v -3.689500 2.694069 -12.738783
v 4.095032 2.694069 -8.948968
v 4.095032 2.603417 -12.356196
v 4.095032 2.694069 -12.356196
v 3.889968 2.603417 -8.566381
v 4.095032 2.603417 -8.566381
v 4.095032 2.694069 -8.566381
v 3.889968 2.694069 -8.566381
v 3.695975 2.694069 -8.566381
v 3.695975 2.603417 -8.566381
v -3.689500 2.694069 -8.566381
v -3.689500 2.603417 -8.566381
v -3.894564 2.694069 -8.566381
v -3.689500 2.539892 -12.675258
v -3.894564 2.539892 -12.675258
v 3.695975 2.603417 -12.738783
v 3.695975 2.539892 -12.675258
v -3.689500 2.539892 -8.629906
v 4.031507 2.539892 -8.948968
v 4.095032 2.694069 -12.555990
v 4.095032 2.694069 -12.356196
v 4.095032 2.603417 -12.356196
v 4.031507 2.539892 -12.555990
v -4.095032 2.603417 -8.948968
v -4.095032 2.603417 -8.749174
v -4.095032 2.603417 -12.356196
v -4.095032 2.694069 -8.749174
v -4.095032 2.694069 -8.948968
v -4.095032 2.694069 -12.356196
v -4.095032 2.694069 -12.555990
v 4.095032 2.694069 -8.749174
v 3.695975 2.694069 -12.738783
v 3.889968 2.694069 -12.738783
v -3.894564 2.694069 -12.738783
v -4.095032 2.694069 -8.948968
v -4.095032 2.694069 -8.749174
v -3.894564 2.694069 -8.566381
v -4.095032 2.694069 -8.566381
v -3.689500 2.694069 -8.566381
v 3.695975 2.694069 -8.566381
v -3.689500 2.694069 -12.738783
v -4.095032 2.694069 -12.356196
v -4.095032 2.694069 -12.738783
v -4.095032 2.694069 -12.555990
v -3.894564 2.694069 -12.738783
v 3.889968 2.694069 -8.566381
v 4.095032 2.694069 -8.566381
v 4.095032 2.694069 -8.749174
v 3.889968 2.694069 -12.738783
v 3.695975 2.694069 -12.738783
v 4.095032 2.694069 -12.555990
v 4.095032 2.694069 -12.738783
v 4.095032 2.603417 -8.948968
vt 0.625000 1.000000
vt 0.478007 1.000000
vt 0.478007 0.950000
vt 0.325000 0.500000
vt 0.359511 0.517376
vt 0.325000 0.517376
vt 0.325000 0.732624
vt 0.275000 0.732624
vt 0.325000 0.700000
vt 0.175000 0.600000
vt 0.225000 0.600000
vt 0.175000 0.650000
vt 0.325000 0.600000
vt 0.325000 0.550000
vt 0.325000 0.550000
vt 0.225000 0.600000
vt 0.275000 0.550000
vt 0.225000 0.550000
vt 0.275000 0.650000
vt 0.225000 0.700000
vt 0.225000 0.650000
vt 0.225000 0.550000
vt 0.275000 0.600000
vt 0.325000 0.600000
vt 0.478007 0.550000
vt 0.478007 0.500000
vt 0.625000 0.500000
vt 0.325000 0.650000
vt 0.359511 0.700000
vt 0.359511 0.600000
vt 0.478007 0.700000
vt 0.359511 0.732624
vt 0.175000 0.750000
vt 0.140844 0.732624
vt 0.175000 0.732624
vt 0.140844 0.700000
vt 0.140844 0.650000
vt 0.175000 0.550000
vt 0.140844 0.600000
vt 0.140844 0.550000
vt 0.275000 0.600000
vt 0.275000 0.550000
vt 0.325000 0.650000
vt 0.275000 0.700000
vt 0.275000 0.650000
vt 0.175000 0.600000
vt 0.175000 0.550000
vt 0.225000 0.650000
vt 0.175000 0.700000
vt 0.175000 0.650000
vt 0.275000 0.700000
vt 0.325000 0.700000
vt 0.175000 0.700000
vt 0.225000 0.700000
vt 0.125000 0.550000
vt 0.140844 0.517376
vt 0.625000 0.250000
vt 0.478007 0.250000
vt 0.478007 0.200000
vt 0.478007 0.650000
vt 0.625000 0.650000
vt 0.478007 0.350000
vt 0.478007 0.300000
vt 0.625000 0.350000
vt 0.011017 0.457673
vt 0.000071 0.046267
vt 0.011017 0.046267
vt 0.478007 0.800000
vt 0.478007 0.750000
vt 0.625000 0.750000
vt 0.625000 0.800000
vt 0.625000 0.850000
vt 0.478007 0.850000
vt 0.625000 0.900000
vt 0.478007 0.900000
vt 0.625000 0.950000
vt 0.225000 0.517376
vt 0.175000 0.517376
vt 0.225000 0.500000
vt 0.175000 0.500000
vt 0.125000 0.500000
vt 0.275000 0.500000
vt 0.275000 0.517376
vt 0.375000 0.500000
vt 0.225000 0.732624
vt 0.359511 0.650000
vt 0.625000 0.550000
vt 0.625000 0.600000
vt 0.478007 0.600000
vt 0.359511 0.550000
vt 0.275000 0.750000
vt 0.325000 0.750000
vt 0.375000 0.750000
vt 0.225000 0.750000
vt 0.125000 0.750000
vt 0.125000 0.650000
vt 0.125000 0.700000
vt 0.125000 0.600000
vt 0.478007 0.050000
vt 0.478007 0.000000
vt 0.625000 0.000000
vt 0.625000 0.050000
vt 0.625000 0.100000
vt 0.478007 0.100000
vt 0.625000 0.150000
vt 0.478007 0.150000
vt 0.625000 0.200000
vt 0.625000 0.700000
vt 0.625000 0.400000
vt 0.478007 0.400000
vt 0.625000 0.450000
vt 0.478007 0.450000
vt 0.625000 0.300000
vt 0.999929 0.457674
vt 0.999929 0.481798
vt 0.975724 0.503869
vt 0.999929 0.503869
vt 0.950963 0.503869
vt 0.059201 0.503869
vt 0.950963 0.000071
vt 0.999929 0.046266
vt 0.999929 0.000071
vt 0.999929 0.022142
vt 0.975724 0.000071
vt 0.035777 0.503869
vt 0.011017 0.503869
vt 0.011017 0.481798
vt 0.035777 0.000071
vt 0.059201 0.000071
vt 0.011017 0.022142
vt 0.011017 0.000071
vt 0.000071 0.457673
vn -0.7071 0.0000 0.7071
vn -0.6507 -0.3914 0.6507
vn 0.0000 -0.3827 0.9239
vn 0.0000 -0.3827 -0.9239
vn 0.3002 -0.9054 -0.3002
vn 0.0000 -0.9239 -0.3827
vn 0.0000 -0.9239 0.3827
vn 0.3015 -0.9045 0.3015
vn -0.3015 -0.9045 0.3015
vn -0.3015 -0.9045 -0.3015
vn 0.5774 -0.5773 -0.5774
vn 0.3015 -0.9045 -0.3015
vn 0.5774 -0.5774 0.5774
vn 0.9239 -0.3827 0.0000
vn 0.6507 -0.3914 -0.6507
vn 0.7071 0.0000 -0.7071
vn 0.3827 -0.9239 0.0000
vn 0.3002 -0.9054 0.3002
vn -0.3002 -0.9054 0.3002
vn -0.3827 -0.9239 0.0000
vn -0.5774 -0.5774 0.5774
vn -0.5774 -0.5774 -0.5774
vn 0.5774 -0.5774 -0.5774
vn -0.5774 -0.5773 -0.5774
vn -0.9239 -0.3827 0.0000
vn -0.3002 -0.9054 -0.3002
vn -0.7071 0.0000 -0.7071
vn -0.6507 -0.3914 -0.6507
vn 0.8629 -0.5055 -0.0000
vn 1.0000 0.0000 0.0000
vn 0.0000 0.0000 -1.0000
vn 0.4472 0.8944 -0.0000
vn 0.6507 -0.3914 0.6507
vn 0.7071 0.0000 0.7071
vn 0.0000 0.0000 1.0000
vn 0.8629 -0.5054 -0.0000
vn -1.0000 0.0000 0.0000
vn -0.0000 1.0000 0.0000
usemtl Material.001
s 1
f 40/48/20 41/49/21 42/50/22
f 43/51/23 44/52/24 45/53/25
f 46/54/26 47/55/26 48/56/27
f 49/57/28 50/58/27 51/59/29
f 52/60/27 53/61/30 54/62/31
f 49/57/28 55/63/32 50/58/27
f 56/64/29 50/58/27 57/65/31
f 58/66/29 59/67/27 60/68/31
f 50/58/27 61/69/30 57/65/31
f 62/70/28 63/71/32 52/60/27
f 64/72/33 65/73/34 66/74/35
f 67/75/31 68/76/36 48/56/27
f 54/62/31 69/77/36 52/60/27
f 70/78/33 71/79/37 68/76/36
f 42/80/22 72/81/38 73/82/26
f 51/59/29 74/83/39 75/84/39
f 54/62/31 56/64/29 45/53/25
f 76/85/29 77/86/39 78/87/39
f 53/61/30 79/88/40 80/89/41
f 81/90/42 82/91/40 83/92/43
f 61/69/30 84/93/40 85/94/41
f 86/95/42 87/96/40 88/97/43
f 67/75/31 83/92/43 58/66/29
f 60/68/31 88/97/43 51/59/29
f 89/98/28 90/99/32 48/56/27
f 59/67/27 86/95/42 60/68/31
f 91/100/28 92/101/32 59/67/27
f 48/56/27 81/90/42 67/75/31
f 76/85/29 84/93/40 49/57/28
f 56/64/29 79/88/40 62/70/28
f 51/59/29 87/96/40 91/100/28
f 58/66/29 82/91/40 89/98/28
f 54/62/31 80/89/41 56/64/29
f 57/65/31 85/94/41 76/85/29
f 93/102/44 94/103/45 78/87/39
f 95/104/46 96/105/47 93/106/44
f 70/78/33 97/107/48 98/108/49
f 99/109/23 100/110/23 101/111/50
f 102/112/51 103/113/49 104/114/51
f 105/115/22 106/116/52 107/117/53
f 108/118/54 109/119/54 110/120/22
f 109/119/54 111/121/54 110/120/22
f 105/115/22 107/117/53 108/118/54
f 42/50/22 112/122/22 111/121/54
f 112/122/22 110/120/22 111/121/54
f 110/120/22 105/115/22 108/118/54
f 111/121/54 113/123/54 42/50/22
f 113/123/54 40/48/20 42/50/22
f 114/124/25 115/125/25 99/126/23
f 115/125/25 94/103/45 100/127/23
f 99/126/23 115/125/25 100/127/23
f 94/103/45 96/128/47 100/127/23
f 99/126/23 116/129/23 114/124/25
f 116/129/23 43/51/23 117/130/25
f 114/124/25 116/129/23 117/130/25
f 45/53/25 117/130/25 43/51/23
f 43/51/23 65/131/34 44/52/24
f 72/81/38 74/83/39 91/100/28
f 59/67/27 89/98/28 118/132/26
f 89/98/28 48/56/27 47/55/26
f 59/67/27 118/132/26 73/82/26
f 72/81/38 91/100/28 73/82/26
f 91/100/28 59/67/27 73/82/26
f 47/55/26 118/132/26 89/98/28
f 48/56/27 68/76/36 71/79/37
f 71/79/37 46/54/26 48/56/27
f 50/58/27 62/70/28 58/66/29
f 62/70/28 52/60/27 67/75/31
f 67/75/31 52/60/27 119/133/36
f 52/60/27 69/77/36 119/133/36
f 67/75/31 58/66/29 62/70/28
f 60/68/31 51/59/29 50/58/27
f 51/59/29 75/84/39 49/57/28
f 60/68/31 50/58/27 58/66/29
f 75/84/39 77/86/39 49/57/28
f 52/60/27 63/71/32 53/61/30
f 49/57/28 84/93/40 55/63/32
f 56/64/29 62/70/28 50/58/27
f 58/66/29 89/98/28 59/67/27
f 50/58/27 55/63/32 61/69/30
f 62/70/28 79/88/40 63/71/32
f 66/74/35 120/134/49 64/72/33
f 120/134/49 121/135/49 64/72/33
f 121/135/49 122/136/55 64/72/33
f 67/75/31 119/133/36 68/76/36
f 54/62/31 123/137/36 69/77/36
f 69/77/36 123/137/36 122/136/55
f 123/137/36 44/52/24 64/72/33
f 122/136/55 123/137/36 64/72/33
f 44/52/24 65/73/34 64/72/33
f 122/136/55 97/107/48 69/77/36
f 97/107/48 70/78/33 119/133/36
f 69/77/36 97/107/48 119/133/36
f 68/76/36 119/133/36 70/78/33
f 70/78/33 106/116/52 71/79/37
f 47/55/26 46/54/26 110/138/22
f 46/54/26 71/79/37 105/139/22
f 110/138/22 46/54/26 105/139/22
f 71/79/37 106/140/52 105/139/22
f 110/138/22 112/141/22 47/55/26
f 112/141/22 42/80/22 118/132/26
f 47/55/26 112/141/22 118/132/26
f 73/82/26 118/132/26 42/80/22
f 42/80/22 41/142/21 72/81/38
f 51/59/29 91/100/28 74/83/39
f 78/87/39 94/103/45 115/125/25
f 114/124/25 117/130/25 57/65/31
f 117/130/25 45/53/25 56/64/29
f 114/124/25 57/65/31 76/85/29
f 78/87/39 115/125/25 76/85/29
f 115/125/25 114/124/25 76/85/29
f 56/64/29 57/65/31 117/130/25
f 45/53/25 44/52/24 123/137/36
f 123/137/36 54/62/31 45/53/25
f 76/85/29 49/57/28 77/86/39
f 53/61/30 63/71/32 79/88/40
f 81/90/42 90/99/32 82/91/40
f 61/69/30 55/63/32 84/93/40
f 86/95/42 92/101/32 87/96/40
f 67/75/31 81/90/42 83/92/43
f 60/68/31 86/95/42 88/97/43
f 89/98/28 82/91/40 90/99/32
f 59/67/27 92/101/32 86/95/42
f 91/100/28 87/96/40 92/101/32
f 48/56/27 90/99/32 81/90/42
f 76/85/29 85/94/41 84/93/40
f 56/64/29 80/89/41 79/88/40
f 51/59/29 88/97/43 87/96/40
f 58/66/29 83/92/43 82/91/40
f 54/62/31 53/61/30 80/89/41
f 57/65/31 61/69/30 85/94/41
f 75/84/39 74/83/39 124/143/44
f 74/83/39 72/81/38 125/144/44
f 124/143/44 74/83/39 125/144/44
f 72/81/38 41/142/21 125/144/44
f 124/143/44 126/145/44 75/84/39
f 126/145/44 93/102/44 77/86/39
f 75/84/39 126/145/44 77/86/39
f 78/87/39 77/86/39 93/102/44
f 93/102/44 96/128/47 94/103/45
f 125/146/44 41/147/21 40/148/20
f 127/149/56 128/150/56 124/151/44
f 128/150/56 129/152/56 124/151/44
f 125/146/44 40/148/20 127/149/56
f 93/106/44 126/153/44 129/152/56
f 126/153/44 124/151/44 129/152/56
f 124/151/44 125/146/44 127/149/56
f 129/152/56 130/154/56 93/106/44
f 130/154/56 95/104/46 93/106/44
f 98/108/49 131/155/49 70/78/33
f 131/155/49 107/117/53 70/78/33
f 107/117/53 106/116/52 70/78/33
f 101/111/50 132/156/50 116/157/23
f 132/156/50 133/158/50 43/159/23
f 133/158/50 66/74/35 65/73/34
f 43/159/23 116/157/23 132/156/50
f 116/157/23 99/109/23 101/111/50
f 133/158/50 65/73/34 43/159/23
f 95/104/46 134/160/50 96/105/47
f 134/160/50 101/111/50 100/110/23
f 96/105/47 134/160/50 100/110/23
f 135/161/57 136/162/57 137/163/57
f 136/162/57 138/164/57 137/163/57
f 137/163/57 139/165/57 135/161/57
f 139/165/57 140/166/57 141/167/57
f 142/168/57 139/165/57 141/167/57
f 143/169/57 144/170/57 145/171/57
f 144/170/57 142/168/57 145/171/57
f 142/168/57 135/161/57 139/165/57
f 140/166/57 146/172/57 102/112/51
f 146/172/57 147/173/57 148/174/57
f 149/175/57 150/176/57 104/114/51
f 150/176/57 141/167/57 140/166/57
f 141/167/57 145/171/57 142/168/57
f 148/174/57 102/112/51 146/172/57
f 150/176/57 102/112/51 104/114/51
f 150/176/57 140/166/57 102/112/51
f 151/177/57 152/178/57 149/175/57
f 102/112/51 153/179/49 103/113/49
f 104/114/51 151/177/57 149/175/57
l 121 98
