# Blender v2.82 (sub 7) OBJ File: ''
# www.blender.org
o Cube.003
v 2.346025 6.318507 9.736108
v 2.346025 -0.004268 9.736107
v -2.328238 -0.014598 0.679036
v -2.328238 5.959011 0.679037
v -2.215677 0.097962 -0.679037
v -2.328238 5.959010 -0.679036
v 2.328238 -0.014598 0.679036
v 2.328238 5.959011 0.679037
v 2.215677 0.097962 -0.679037
v 2.328238 5.959010 -0.679036
v -2.328238 1.257733 0.679036
v -2.328238 5.337540 0.679037
v -2.219867 5.229169 -0.679036
v -2.219867 1.366102 -0.679036
v 2.219867 5.229169 -0.679036
v 2.219867 1.366102 -0.679036
v 2.328238 5.337540 0.679037
v 2.328238 1.257733 0.679036
v -2.328238 5.337539 -0.679036
v -2.215677 1.145171 -0.679036
v 2.328238 5.337539 -0.679036
v 2.215677 1.145171 -0.679036
v -2.219867 5.229169 0.497137
v -2.219867 1.366102 0.497136
v 2.219867 5.229169 0.497137
v 2.219867 1.366102 0.497136
v -2.219867 4.217774 -0.570576
v -2.219867 4.309031 -0.570576
v -2.219867 3.253074 -0.570577
v -2.219867 3.342197 -0.570577
v -2.219867 2.286240 -0.570577
v -2.219867 2.377497 -0.570577
v 2.219867 2.377497 -0.570577
v 2.219867 2.286240 -0.570577
v 2.219867 3.342197 -0.570577
v 2.219867 3.253074 -0.570577
v 2.219867 4.309031 -0.570576
v 2.219867 4.217774 -0.570576
v -2.328238 2.232056 0.679036
v -2.328238 2.323313 0.679036
v -2.328238 3.253075 0.679036
v -2.328238 3.342198 0.679036
v -2.328238 4.271960 0.679036
v -2.328238 4.363216 0.679036
v -2.328238 4.271873 -0.679036
v -2.328238 4.363300 -0.679036
v -2.328238 3.253074 -0.679036
v -2.328238 3.342197 -0.679036
v -2.328238 2.231970 -0.679036
v -2.328238 2.323397 -0.679036
v 2.328238 4.363300 -0.679036
v 2.328238 4.271873 -0.679036
v 2.328238 3.342197 -0.679036
v 2.328238 3.253074 -0.679036
v 2.328238 2.323397 -0.679036
v 2.328238 2.231970 -0.679036
v 2.328238 4.363216 0.679036
v 2.328238 4.271960 0.679036
v 2.328238 3.342198 0.679036
v 2.328238 3.253075 0.679036
v 2.328238 2.323313 0.679036
v 2.328238 2.232056 0.679036
v -2.219867 4.217689 -0.679036
v -2.219867 4.309115 -0.679036
v -2.219867 3.253074 -0.679036
v -2.219867 3.342197 -0.679036
v -2.219867 2.286155 -0.679036
v -2.219867 2.377582 -0.679036
v 2.219867 4.309115 -0.679036
v 2.219867 4.217689 -0.679036
v 2.219867 3.342197 -0.679036
v 2.219867 3.253074 -0.679036
v 2.219867 2.377582 -0.679036
v 2.219867 2.286155 -0.679036
v -2.219867 4.309031 0.497136
v -2.219867 4.217774 0.497136
v -2.219867 3.342197 0.497136
v -2.219867 3.253074 0.497136
v -2.219867 2.377497 0.497136
v -2.219867 2.286240 0.497136
v 2.219867 4.217774 0.497136
v 2.219867 4.309031 0.497136
v 2.219867 3.253074 0.497136
v 2.219867 3.342197 0.497136
v 2.219867 2.286240 0.497136
v 2.219867 2.377497 0.497136
v -2.328238 1.257732 -0.679036
v -2.328238 -0.014599 -0.679037
v 2.328238 -0.014599 -0.679037
v 2.328238 1.257732 -0.679036
v -0.071912 1.145171 -0.572238
v -0.071912 0.097962 -0.572238
v 0.071912 0.097962 -0.572238
v 0.071912 1.145171 -0.572238
v 2.215677 0.097962 -0.572238
v 2.215677 1.145171 -0.572238
v -2.215677 0.097962 -0.572238
v -2.215677 1.145171 -0.572238
v 0.071912 -0.014599 -0.679037
v -0.071912 -0.014599 -0.679037
v 0.071912 5.959010 -0.679036
v -0.071912 5.959010 -0.679036
v -0.071912 -0.014598 0.679036
v 0.071912 -0.014598 0.679036
v -0.071912 5.959011 0.679037
v 0.071912 5.959011 0.679037
v -0.071912 1.257733 0.679036
v 0.071912 1.257733 0.679036
v 0.071912 5.337540 0.679037
v -0.071912 5.337540 0.679037
v -0.071912 1.257732 -0.679036
v 0.071912 1.257732 -0.679036
v -0.071912 5.337539 -0.679036
v 0.071912 5.337539 -0.679036
v -0.071912 1.366102 -0.679036
v 0.071912 1.366102 -0.679036
v -0.071912 5.229169 -0.679036
v 0.071912 5.229169 -0.679036
v 0.071912 1.366102 0.497136
v -0.071912 1.366102 0.497136
v -0.071912 5.229169 0.497137
v 0.071912 5.229169 0.497137
v 0.071912 4.309031 -0.570576
v -0.071912 4.309031 -0.570576
v -0.071912 3.253074 -0.570577
v 0.071912 3.253074 -0.570577
v -0.071912 2.286240 -0.570577
v 0.071912 2.286240 -0.570577
v -0.071912 4.217774 -0.570576
v 0.071912 4.217774 -0.570576
v 0.071912 2.377497 -0.570577
v -0.071912 2.377497 -0.570577
v -0.071912 3.342197 -0.570577
v 0.071912 3.342197 -0.570577
v -0.071912 2.377497 0.497136
v 0.071912 2.377497 0.497136
v 0.071912 2.286240 0.497136
v -0.071912 2.286240 0.497136
v -0.071912 3.342197 0.497136
v 0.071912 3.342197 0.497136
v 0.071912 3.253074 0.497136
v -0.071912 3.253074 0.497136
v -0.071912 4.309031 0.497136
v 0.071912 4.309031 0.497136
v 0.071912 4.217774 0.497136
v -0.071912 4.217774 0.497136
v 0.071912 2.323313 0.679036
v -0.071912 2.323313 0.679036
v 0.071912 2.232056 0.679036
v -0.071912 2.232056 0.679036
v 0.071912 3.342198 0.679036
v -0.071912 3.342198 0.679036
v -0.071912 3.253075 0.679036
v 0.071912 3.253075 0.679036
v 0.071912 4.363216 0.679036
v -0.071912 4.363216 0.679036
v -0.071912 4.271960 0.679036
v 0.071912 4.271960 0.679036
v -0.071912 0.097962 -0.679037
v 0.071912 0.097962 -0.679037
v 0.071912 1.145171 -0.679036
v -0.071912 1.145171 -0.679036
vt 0.511581 0.000000
vt 0.625000 0.250000
vt 0.511581 0.250000
vt 0.875000 0.500000
vt 0.753861 0.750000
vt 0.753861 0.500000
vt 0.855145 0.386531
vt 0.756073 0.474848
vt 0.756073 0.386532
vt 0.855145 0.474848
vt 0.756073 0.576709
vt 0.957466 0.323750
vt 0.995685 0.465188
vt 0.957466 0.465188
vt 0.104544 0.474848
vt 0.013401 0.576709
vt 0.013401 0.474848
vt 0.855145 0.673600
vt 0.756073 0.779044
vt 0.756073 0.673600
vt 0.150810 0.652232
vt 0.294296 0.699435
vt 0.132851 0.699435
vt 0.104544 0.386532
vt 0.013401 0.386531
vt 0.318426 0.321924
vt 0.463507 0.274722
vt 0.463507 0.321925
vt 0.847149 0.650407
vt 0.957466 0.527834
vt 0.957466 0.650407
vt 0.509368 0.494182
vt 0.509368 0.378861
vt 0.509368 0.378861
vt 0.375000 0.000000
vt 0.428248 0.250000
vt 0.375000 0.250000
vt 0.665782 0.576709
vt 0.665782 0.474848
vt 0.150810 0.321925
vt 0.294296 0.274721
vt 0.303275 0.321924
vt 0.560289 0.386532
vt 0.474135 0.474848
vt 0.474135 0.386531
vt 0.132851 0.465188
vt 0.132851 0.274721
vt 0.790972 0.465187
vt 0.790972 0.321925
vt 0.790972 0.321925
vt 0.318412 0.652232
vt 0.463507 0.527834
vt 0.463507 0.652232
vt 0.318426 0.652232
vt 0.463507 0.652232
vt 0.509368 0.371139
vt 0.509368 0.255818
vt 0.509368 0.255818
vt 0.150810 0.652232
vt 0.303289 0.527834
vt 0.303289 0.652232
vt 0.463507 0.321925
vt 0.318411 0.321925
vt 0.623356 0.321924
vt 0.478275 0.321925
vt 0.478276 0.321925
vt 0.638507 0.321924
vt 0.638493 0.321925
vt 0.150810 0.321925
vt 0.638507 0.652232
vt 0.790973 0.652232
vt 0.790973 0.652232
vt 0.623356 0.652232
vt 0.478276 0.652232
vt 0.623371 0.652232
vt 0.488709 0.255818
vt 0.488709 0.371139
vt 0.488709 0.371139
vt 0.638493 0.652232
vt 0.790972 0.527833
vt 0.623370 0.527834
vt 0.303275 0.652232
vt 0.194828 0.386532
vt 0.292848 0.386532
vt 0.379002 0.474848
vt 0.292840 0.474848
vt 0.463507 0.699435
vt 0.309447 0.699435
vt 0.478276 0.699435
vt 0.478276 0.652232
vt 0.647487 0.699435
vt 0.474135 0.779044
vt 0.379002 0.673600
vt 0.474136 0.673600
vt 0.428248 0.000000
vt 0.448148 0.250000
vt 0.491682 0.250000
vt 0.491680 0.000000
vt 0.647486 0.274721
vt 0.808931 0.274721
vt 0.478275 0.274722
vt 0.632335 0.274721
vt 0.665790 0.386532
vt 0.469004 0.000000
vt 0.450015 0.250000
vt 0.450013 0.000000
vt 0.665782 0.779044
vt 0.560297 0.673600
vt 0.665782 0.673600
vt 0.463507 0.889583
vt 0.469004 0.494182
vt 0.470825 0.494182
vt 0.470825 0.494182
vt 0.463507 0.652232
vt 0.488709 0.494182
vt 0.490573 0.494182
vt 0.490573 0.494182
vt 0.309446 0.274721
vt 0.632336 0.699435
vt 0.448149 0.000000
vt 0.470825 0.250000
vt 0.470825 0.000000
vt 0.489816 0.000000
vt 0.194835 0.474848
vt 0.379002 0.386531
vt 0.560297 0.474848
vt 0.292840 0.576709
vt 0.474136 0.576710
vt 0.104544 0.576709
vt 0.623370 0.527834
vt 0.638493 0.652232
vt 0.623371 0.652232
vt 0.303289 0.652232
vt 0.463507 0.321925
vt 0.478276 0.465188
vt 0.463507 0.465188
vt 0.449256 0.494182
vt 0.451120 0.494182
vt 0.451120 0.494182
vt 0.451120 0.255818
vt 0.449256 0.255818
vt 0.449256 0.255818
vt 0.303289 0.527834
vt 0.318412 0.652232
vt 0.470825 0.255818
vt 0.469004 0.255818
vt 0.469004 0.255818
vt 0.623370 0.321925
vt 0.638493 0.465188
vt 0.623370 0.465188
vt 0.490573 0.255818
vt 0.488709 0.255818
vt 0.488709 0.378861
vt 0.488709 0.494182
vt 0.957466 0.650407
vt 0.808931 0.699435
vt 0.847149 0.650407
vt 0.946262 0.386531
vt 0.847149 0.323750
vt 0.995685 0.274722
vt 0.808931 0.465188
vt 0.808931 0.527834
vt 0.375000 0.500000
vt 0.253861 0.750000
vt 0.253861 0.500000
vt 0.623370 0.321925
vt 0.623370 0.465188
vt 0.638493 0.527834
vt 0.638493 0.527834
vt 0.463507 0.527834
vt 0.478276 0.652232
vt 0.463507 0.465188
vt 0.469004 0.371139
vt 0.469004 0.371139
vt 0.303289 0.321925
vt 0.318411 0.465188
vt 0.303289 0.465188
vt 0.469004 0.378861
vt 0.469004 0.494182
vt 0.957466 0.527834
vt 0.847149 0.527833
vt 0.847149 0.527833
vt 0.292840 0.779044
vt 0.292840 0.673600
vt 0.478276 0.465188
vt 0.318411 0.465188
vt 0.150810 0.465188
vt 0.303289 0.321925
vt 0.303289 0.465188
vt 0.449256 0.378861
vt 0.449256 0.494182
vt 0.638493 0.465188
vt 0.790972 0.465187
vt 0.194835 0.673600
vt 0.132851 0.527834
vt 0.150810 0.527834
vt 0.790972 0.527833
vt 0.104544 0.673600
vt 0.013401 0.779044
vt 0.013401 0.673600
vt -0.001268 0.699435
vt 0.995685 0.527834
vt 0.995685 0.699435
vt 0.104544 0.779044
vt -0.001268 0.465188
vt 0.847149 0.465187
vt 0.449256 0.371139
vt 0.449256 0.371139
vt 0.194835 0.576710
vt 0.560297 0.576710
vt 0.379002 0.576710
vt 0.478276 0.527834
vt 0.150810 0.527834
vt 0.318411 0.527834
vt 0.150810 0.465188
vt 0.746139 0.500000
vt 0.246139 0.500000
vt 0.855145 0.576710
vt -0.001268 0.527834
vt 0.125000 0.750000
vt 0.125000 0.500000
vt 0.847149 0.465187
vt 0.957466 0.323750
vt 0.957466 0.465188
vt 0.423537 0.371139
vt 0.423537 0.256043
vt 0.423537 0.256043
vt 0.423537 0.493957
vt 0.423537 0.378861
vt 0.423537 0.378861
vt 0.847149 0.323750
vt 0.625000 0.000000
vt 0.875000 0.750000
vt 0.855145 0.779044
vt 0.509368 0.494182
vt 0.509368 0.371139
vt 0.379002 0.779044
vt 0.469004 0.250000
vt 0.560297 0.779044
vt 0.309432 0.889583
vt 0.489814 0.250000
vt 0.478276 0.321925
vt 0.451120 0.255818
vt 0.318411 0.527834
vt 0.470825 0.255818
vt 0.638493 0.321925
vt 0.490573 0.255818
vt 0.488709 0.378861
vt 0.946262 0.474848
vt 0.375000 0.750000
vt 0.478276 0.527834
vt 0.318411 0.321925
vt 0.469004 0.378861
vt 0.449256 0.378861
vt 0.194835 0.779044
vt -0.001268 0.274722
vt 0.746139 0.750000
vt 0.246139 0.750000
vt 0.423537 0.371139
vt 0.423537 0.493957
vn -1.0000 -0.0000 0.0000
vn 0.0000 1.0000 -0.0000
vn 1.0000 -0.0000 0.0000
vn 0.0000 -0.0000 1.0000
vn 0.0000 0.0000 -1.0000
vn 0.0000 -1.0000 0.0000
s off
f 12/1/1 6/2/1 19/3/1
f 6/4/2 105/5/2 102/6/2
f 10/7/3 17/8/3 21/9/3
f 8/10/4 109/11/4 17/8/4
f 9/12/5 99/13/5 160/14/5
f 18/15/4 104/16/4 7/17/4
f 105/18/4 12/19/4 110/20/4
f 13/21/5 46/22/5 19/23/5
f 90/24/3 7/17/3 89/25/3
f 70/26/5 53/27/5 71/28/5
f 98/29/5 92/30/5 97/31/5
f 15/32/6 122/33/6 118/34/6
f 3/35/1 87/36/1 88/37/1
f 17/8/4 155/38/4 57/39/4
f 15/40/5 51/41/5 69/42/5
f 52/43/3 59/44/3 53/45/3
f 15/40/5 114/46/5 21/47/5
f 116/48/2 26/49/2 16/50/2
f 76/51/5 139/52/5 77/53/5
f 63/54/3 77/53/3 66/55/3
f 117/56/6 23/57/6 13/58/6
f 23/59/5 143/60/5 75/61/5
f 70/26/1 84/62/1 81/63/1
f 73/64/1 83/65/1 72/66/1
f 74/67/1 26/49/1 85/68/1
f 69/42/1 25/69/1 15/40/1
f 67/70/3 24/71/3 14/72/3
f 68/73/3 78/74/3 79/75/3
f 76/76/6 129/77/6 146/78/6
f 80/79/5 120/80/5 24/71/5
f 78/74/5 135/81/5 79/75/5
f 64/82/3 23/59/3 75/61/3
f 56/83/3 18/15/3 90/24/3
f 55/84/3 60/85/3 61/86/3
f 63/54/5 48/87/5 45/88/5
f 68/73/5 47/89/5 65/90/5
f 14/72/5 49/91/5 67/70/5
f 42/92/4 153/93/4 152/94/4
f 11/95/1 49/96/1 87/36/1
f 12/1/1 46/97/1 44/98/1
f 16/50/5 56/99/5 90/100/5
f 73/64/5 54/101/5 55/102/5
f 51/103/3 17/8/3 57/39/3
f 41/104/1 50/105/1 40/106/1
f 44/107/4 157/108/4 156/109/4
f 42/110/1 45/88/1 48/87/1
f 81/63/1 69/42/1 70/26/1
f 83/65/1 71/28/1 72/66/1
f 85/68/1 73/64/1 74/67/1
f 79/75/3 67/70/3 68/73/3
f 77/53/3 65/90/3 66/55/3
f 75/61/3 63/54/3 64/82/3
f 83/111/3 35/112/3 84/113/3
f 139/52/2 30/114/2 77/53/2
f 81/115/3 37/116/3 82/117/3
f 55/102/5 74/67/5 73/64/5
f 53/27/5 72/66/5 71/28/5
f 69/42/5 52/118/5 70/26/5
f 45/88/5 64/82/5 63/54/5
f 47/89/5 66/55/5 65/90/5
f 67/70/5 50/119/5 68/73/5
f 50/105/1 39/120/1 40/106/1
f 48/121/1 41/104/1 42/122/1
f 46/97/1 43/123/1 44/98/1
f 55/84/3 62/124/3 56/83/3
f 59/44/3 54/125/3 53/45/3
f 51/103/3 58/126/3 52/43/3
f 60/85/4 147/127/4 61/86/4
f 58/126/4 151/128/4 59/44/4
f 155/38/4 58/126/4 57/39/4
f 62/124/4 108/129/4 18/15/4
f 132/130/5 31/131/5 32/132/5
f 143/60/2 28/133/2 75/61/2
f 35/134/5 126/135/5 134/136/5
f 85/137/3 33/138/3 86/139/3
f 135/81/2 32/132/2 79/75/2
f 79/140/1 31/141/1 80/142/1
f 124/143/5 27/144/5 28/133/5
f 77/145/1 29/146/1 78/147/1
f 33/148/5 128/149/5 131/150/5
f 75/151/1 27/152/1 76/76/1
f 145/153/6 38/154/6 81/115/6
f 5/155/5 87/156/5 20/157/5
f 101/158/2 8/10/2 10/7/2
f 22/159/5 89/160/5 9/12/5
f 16/50/5 112/161/5 116/48/5
f 14/72/5 111/162/5 87/156/5
f 89/163/6 104/164/6 99/165/6
f 86/166/2 131/150/2 136/167/2
f 80/79/6 127/168/6 138/169/6
f 133/170/5 29/171/5 30/114/5
f 84/62/2 134/136/2 140/172/2
f 78/147/6 125/173/6 142/174/6
f 37/175/5 130/176/5 123/177/5
f 141/178/6 36/179/6 83/111/6
f 110/20/4 44/107/4 156/109/4
f 159/180/1 91/181/1 162/182/1
f 157/108/4 42/92/4 152/94/4
f 153/93/4 40/183/4 148/184/4
f 141/185/5 86/166/5 136/167/5
f 151/128/4 60/85/4 59/44/4
f 147/127/4 62/124/4 61/86/4
f 145/186/5 84/62/5 140/172/5
f 122/187/5 82/188/5 144/189/5
f 137/190/6 34/191/6 85/137/6
f 82/188/2 123/177/2 144/189/2
f 137/192/5 26/49/5 119/193/5
f 40/183/4 150/194/4 148/184/4
f 13/21/5 113/195/5 117/196/5
f 20/157/5 111/162/5 162/182/5
f 22/159/5 112/161/5 90/100/5
f 14/72/2 120/80/2 115/197/2
f 20/157/3 97/31/3 5/155/3
f 107/198/4 3/199/4 103/200/4
f 6/201/5 113/195/5 19/23/5
f 5/155/5 100/202/5 88/203/5
f 150/194/4 11/204/4 107/198/4
f 101/205/5 21/47/5 114/46/5
f 111/162/5 161/206/5 162/182/5
f 99/13/5 159/180/5 160/14/5
f 129/77/6 145/153/6 146/78/6
f 127/207/6 137/190/6 138/208/6
f 123/177/2 143/60/2 144/189/2
f 131/150/2 135/81/2 136/167/2
f 125/173/6 141/178/6 142/174/6
f 130/176/5 124/143/5 123/177/5
f 126/135/5 133/170/5 134/136/5
f 107/198/4 149/209/4 150/194/4
f 157/108/4 155/38/4 156/109/4
f 153/93/4 151/128/4 152/94/4
f 150/194/4 147/127/4 148/184/4
f 134/136/2 139/52/2 140/172/2
f 152/94/4 158/210/4 157/108/4
f 148/184/4 154/211/4 153/93/4
f 136/167/5 142/212/5 141/185/5
f 119/193/5 138/169/5 137/192/5
f 128/149/5 132/130/5 131/150/5
f 144/189/5 121/213/5 122/187/5
f 122/33/6 117/56/6 118/34/6
f 140/172/5 146/214/5 145/186/5
f 113/195/5 118/215/5 117/196/5
f 112/161/5 115/197/5 116/48/5
f 156/109/4 109/11/4 110/20/4
f 120/80/2 116/48/2 115/197/2
f 160/14/5 162/182/5 161/206/5
f 103/200/4 108/129/4 107/198/4
f 105/5/2 101/216/2 102/6/2
f 104/164/6 100/217/6 99/165/6
f 110/20/4 106/218/4 105/18/4
f 114/46/5 102/219/5 101/205/5
f 100/217/6 3/220/6 88/221/6
f 94/222/5 95/223/5 93/224/5
f 162/225/6 98/226/6 20/227/6
f 5/155/2 92/30/2 159/180/2
f 22/228/6 94/229/6 161/230/6
f 161/206/3 93/224/3 160/14/3
f 160/14/2 95/223/2 9/12/2
f 9/12/1 96/231/1 22/159/1
f 12/1/1 4/232/1 6/2/1
f 6/4/2 4/233/2 105/5/2
f 10/7/3 8/10/3 17/8/3
f 8/10/4 106/218/4 109/11/4
f 9/12/5 89/160/5 99/13/5
f 18/15/4 108/129/4 104/16/4
f 105/18/4 4/234/4 12/19/4
f 13/21/5 64/82/5 46/22/5
f 90/24/3 18/15/3 7/17/3
f 70/26/5 52/118/5 53/27/5
f 98/29/5 91/181/5 92/30/5
f 15/32/6 25/235/6 122/33/6
f 3/35/1 11/95/1 87/36/1
f 17/8/4 109/11/4 155/38/4
f 15/40/5 21/47/5 51/41/5
f 52/43/3 58/126/3 59/44/3
f 15/40/5 118/215/5 114/46/5
f 116/48/2 119/193/2 26/49/2
f 76/51/5 146/214/5 139/52/5
f 63/54/3 76/51/3 77/53/3
f 117/56/6 121/236/6 23/57/6
f 23/59/5 121/213/5 143/60/5
f 70/26/1 71/28/1 84/62/1
f 73/64/1 86/166/1 83/65/1
f 74/67/1 16/50/1 26/49/1
f 69/42/1 82/188/1 25/69/1
f 67/70/3 80/79/3 24/71/3
f 68/73/3 65/90/3 78/74/3
f 76/76/6 27/152/6 129/77/6
f 80/79/5 138/169/5 120/80/5
f 78/74/5 142/212/5 135/81/5
f 64/82/3 13/21/3 23/59/3
f 56/83/3 62/124/3 18/15/3
f 55/84/3 54/125/3 60/85/3
f 63/54/5 66/55/5 48/87/5
f 68/73/5 50/119/5 47/89/5
f 14/72/5 87/156/5 49/91/5
f 42/92/4 41/237/4 153/93/4
f 11/95/1 39/120/1 49/96/1
f 12/1/1 19/3/1 46/97/1
f 16/50/5 74/67/5 56/99/5
f 73/64/5 72/66/5 54/101/5
f 51/103/3 21/9/3 17/8/3
f 41/104/1 47/238/1 50/105/1
f 44/107/4 43/239/4 157/108/4
f 42/110/1 43/240/1 45/88/1
f 81/63/1 82/188/1 69/42/1
f 83/65/1 84/62/1 71/28/1
f 85/68/1 86/166/1 73/64/1
f 79/75/3 80/79/3 67/70/3
f 77/53/3 78/74/3 65/90/3
f 75/61/3 76/51/3 63/54/3
f 83/111/3 36/179/3 35/112/3
f 139/52/2 133/170/2 30/114/2
f 81/115/3 38/154/3 37/116/3
f 55/102/5 56/99/5 74/67/5
f 53/27/5 54/101/5 72/66/5
f 69/42/5 51/41/5 52/118/5
f 45/88/5 46/22/5 64/82/5
f 47/89/5 48/87/5 66/55/5
f 67/70/5 49/91/5 50/119/5
f 50/105/1 49/96/1 39/120/1
f 48/121/1 47/238/1 41/104/1
f 46/97/1 45/241/1 43/123/1
f 55/84/3 61/86/3 62/124/3
f 59/44/3 60/85/3 54/125/3
f 51/103/3 57/39/3 58/126/3
f 60/85/4 154/211/4 147/127/4
f 58/126/4 158/210/4 151/128/4
f 155/38/4 158/210/4 58/126/4
f 62/124/4 149/209/4 108/129/4
f 132/130/5 127/168/5 31/131/5
f 143/60/2 124/143/2 28/133/2
f 35/134/5 36/242/5 126/135/5
f 85/137/3 34/191/3 33/138/3
f 135/81/2 132/130/2 32/132/2
f 79/140/1 32/243/1 31/141/1
f 124/143/5 129/244/5 27/144/5
f 77/145/1 30/245/1 29/146/1
f 33/148/5 34/246/5 128/149/5
f 75/151/1 28/247/1 27/152/1
f 145/153/6 130/248/6 38/154/6
f 5/155/5 88/203/5 87/156/5
f 101/158/2 106/249/2 8/10/2
f 22/159/5 90/100/5 89/160/5
f 16/50/5 90/100/5 112/161/5
f 14/72/5 115/197/5 111/162/5
f 89/163/6 7/250/6 104/164/6
f 86/166/2 33/148/2 131/150/2
f 80/79/6 31/131/6 127/168/6
f 133/170/5 125/251/5 29/171/5
f 84/62/2 35/134/2 134/136/2
f 78/147/6 29/146/6 125/173/6
f 37/175/5 38/252/5 130/176/5
f 141/178/6 126/253/6 36/179/6
f 110/20/4 12/19/4 44/107/4
f 159/180/1 92/30/1 91/181/1
f 157/108/4 43/239/4 42/92/4
f 153/93/4 41/237/4 40/183/4
f 141/185/5 83/65/5 86/166/5
f 151/128/4 154/211/4 60/85/4
f 147/127/4 149/209/4 62/124/4
f 145/186/5 81/63/5 84/62/5
f 122/187/5 25/69/5 82/188/5
f 137/190/6 128/254/6 34/191/6
f 82/188/2 37/175/2 123/177/2
f 137/192/5 85/68/5 26/49/5
f 40/183/4 39/255/4 150/194/4
f 13/21/5 19/23/5 113/195/5
f 20/157/5 87/156/5 111/162/5
f 22/159/5 161/206/5 112/161/5
f 14/72/2 24/71/2 120/80/2
f 20/157/3 98/29/3 97/31/3
f 107/198/4 11/204/4 3/199/4
f 6/201/5 102/219/5 113/195/5
f 5/155/5 159/180/5 100/202/5
f 150/194/4 39/255/4 11/204/4
f 101/205/5 10/256/5 21/47/5
f 111/162/5 112/161/5 161/206/5
f 99/13/5 100/202/5 159/180/5
f 129/77/6 130/248/6 145/153/6
f 127/207/6 128/254/6 137/190/6
f 123/177/2 124/143/2 143/60/2
f 131/150/2 132/130/2 135/81/2
f 125/173/6 126/253/6 141/178/6
f 130/176/5 129/244/5 124/143/5
f 126/135/5 125/251/5 133/170/5
f 107/198/4 108/129/4 149/209/4
f 157/108/4 158/210/4 155/38/4
f 153/93/4 154/211/4 151/128/4
f 150/194/4 149/209/4 147/127/4
f 134/136/2 133/170/2 139/52/2
f 152/94/4 151/128/4 158/210/4
f 148/184/4 147/127/4 154/211/4
f 136/167/5 135/81/5 142/212/5
f 119/193/5 120/80/5 138/169/5
f 128/149/5 127/168/5 132/130/5
f 144/189/5 143/60/5 121/213/5
f 122/33/6 121/236/6 117/56/6
f 140/172/5 139/52/5 146/214/5
f 113/195/5 114/46/5 118/215/5
f 112/161/5 111/162/5 115/197/5
f 156/109/4 155/38/4 109/11/4
f 120/80/2 119/193/2 116/48/2
f 160/14/5 159/180/5 162/182/5
f 103/200/4 104/16/4 108/129/4
f 105/5/2 106/257/2 101/216/2
f 104/164/6 103/258/6 100/217/6
f 110/20/4 109/11/4 106/218/4
f 114/46/5 113/195/5 102/219/5
f 100/217/6 103/258/6 3/220/6
f 94/222/5 96/231/5 95/223/5
f 162/225/6 91/259/6 98/226/6
f 5/155/2 97/31/2 92/30/2
f 22/228/6 96/260/6 94/229/6
f 161/206/3 94/222/3 93/224/3
f 160/14/2 93/224/2 95/223/2
f 9/12/1 95/223/1 96/231/1
