# Blender v2.82 (sub 7) OBJ File: ''
# www.blender.org
o Cube.002
v -4.095032 2.669625 2.086201
v -4.095032 2.578973 2.086201
v -3.894564 2.578973 2.086201
v 3.889968 2.578973 -2.086201
v 4.031507 2.515448 -2.022676
v 3.889968 2.515448 -2.022676
v 3.889968 2.515447 2.022676
v 3.695975 2.515447 2.022676
v 3.889968 2.515447 1.903408
v -3.894564 2.515448 -1.703614
v -3.689500 2.515448 -1.703614
v -3.894564 2.515447 1.703614
v 3.889968 2.515448 -1.703614
v 3.889968 -0.003365 -1.903408
v 3.889968 2.515448 -1.903408
v -3.689500 -0.003365 -1.703614
v 3.695975 2.515448 -1.903408
v -3.689500 2.515448 -1.903408
v 3.695975 2.515447 1.703614
v -3.689500 2.515447 1.903408
v -3.689500 2.515447 1.703614
v -3.689500 -0.003365 -1.903408
v 3.695975 2.515448 -1.703614
v 3.889968 -0.003365 -1.703614
v 4.095032 2.578973 -1.903408
v 4.095032 2.578973 -2.086201
v 4.095032 2.669625 -2.086201
v 3.889968 2.515447 1.703614
v 4.031507 2.515447 1.903408
v 4.031507 2.515448 -1.703614
v 4.095032 2.578973 1.903408
v 4.031507 2.515447 2.022676
v -4.031507 2.515447 2.022676
v -3.894564 2.515447 2.022676
v -4.031507 2.515447 1.903408
v -4.031507 2.515447 1.703614
v -3.894564 2.515448 -1.903408
v -4.031507 2.515448 -1.703614
v -4.031507 2.515448 -1.903408
v 3.695975 -0.003365 -1.703614
v 3.695975 -0.003365 -1.903408
v 3.889968 -0.003366 1.703614
v 3.695975 -0.003366 1.903408
v 3.695975 -0.003366 1.703614
v -3.894564 -0.003365 -1.703614
v -3.894564 -0.003365 -1.903408
v -3.689500 -0.003366 1.703614
v -3.894564 -0.003366 1.903408
v -3.894564 -0.003366 1.703614
v 3.695975 2.515447 1.903408
v 3.889968 -0.003366 1.903408
v -3.894564 2.515447 1.903408
v -3.689500 -0.003366 1.903408
v -4.095032 2.578973 -1.903408
v -4.031507 2.515448 -2.022676
v -4.095032 2.669625 -2.086201
v -4.095032 2.578973 -2.086201
v 4.095032 2.578973 1.703614
v 4.095032 2.669625 1.703614
v -3.689500 2.578973 -2.086201
v -3.894564 2.578973 -2.086201
v -3.689500 2.669625 -2.086201
v 4.095032 2.669625 1.703614
v 4.095032 2.578973 -1.703614
v 4.095032 2.669625 -1.703614
v 3.889968 2.578973 2.086201
v 4.095032 2.578973 2.086201
v 4.095032 2.669625 2.086201
v 3.889968 2.669625 2.086201
v 3.695975 2.669625 2.086201
v 3.695975 2.578973 2.086201
v -3.689500 2.669625 2.086201
v -3.689500 2.578973 2.086201
v -3.894564 2.669625 2.086201
v -3.689500 2.515448 -2.022676
v -3.894564 2.515448 -2.022676
v 3.695975 2.578973 -2.086201
v 3.695975 2.515448 -2.022676
v -3.689500 2.515447 2.022676
v 4.031507 2.515447 1.703614
v 4.095032 2.669625 -1.903408
v 4.095032 2.669625 -1.703614
v 4.095032 2.578973 -1.703614
v 4.031507 2.515448 -1.903408
v -4.095032 2.578973 1.703614
v -4.095032 2.578973 1.903408
v -4.095032 2.578973 -1.703614
v -4.095032 2.669625 1.903408
v -4.095032 2.669625 1.703614
v -4.095032 2.669625 -1.703614
v -4.095032 2.669625 -1.903408
v 4.095032 2.669625 1.903408
v 3.695975 2.669625 -2.086201
v 3.889968 2.669625 -2.086201
v -3.894564 2.669625 -2.086201
v -4.095032 2.669625 1.703614
v -4.095032 2.669625 1.903408
v -3.894564 2.669625 2.086201
v -4.095032 2.669625 2.086201
v -3.689500 2.669625 2.086201
v 3.695975 2.669625 2.086201
v -3.689500 2.669625 -2.086201
v -4.095032 2.669625 -1.703614
v -4.095032 2.669625 -2.086201
v -4.095032 2.669625 -1.903408
v -3.894564 2.669625 -2.086201
v 3.889968 2.669625 2.086201
v 4.095032 2.669625 2.086201
v 4.095032 2.669625 1.903408
v 3.889968 2.669625 -2.086201
v 3.695975 2.669625 -2.086201
v 4.095032 2.669625 -1.903408
v 4.095032 2.669625 -2.086201
v 4.095032 2.578973 1.703614
vt 0.625000 1.000000
vt 0.478007 1.000000
vt 0.478007 0.950000
vt 0.325000 0.500000
vt 0.359511 0.517376
vt 0.325000 0.517376
vt 0.325000 0.732624
vt 0.275000 0.732624
vt 0.325000 0.700000
vt 0.175000 0.600000
vt 0.225000 0.600000
vt 0.175000 0.650000
vt 0.325000 0.600000
vt 0.325000 0.550000
vt 0.325000 0.550000
vt 0.225000 0.600000
vt 0.275000 0.550000
vt 0.225000 0.550000
vt 0.275000 0.650000
vt 0.225000 0.700000
vt 0.225000 0.650000
vt 0.225000 0.550000
vt 0.275000 0.600000
vt 0.325000 0.600000
vt 0.478007 0.550000
vt 0.478007 0.500000
vt 0.625000 0.500000
vt 0.325000 0.650000
vt 0.359511 0.700000
vt 0.359511 0.600000
vt 0.478007 0.700000
vt 0.359511 0.732624
vt 0.175000 0.750000
vt 0.140844 0.732624
vt 0.175000 0.732624
vt 0.140844 0.700000
vt 0.140844 0.650000
vt 0.175000 0.550000
vt 0.140844 0.600000
vt 0.140844 0.550000
vt 0.275000 0.600000
vt 0.275000 0.550000
vt 0.325000 0.650000
vt 0.275000 0.700000
vt 0.275000 0.650000
vt 0.175000 0.600000
vt 0.175000 0.550000
vt 0.225000 0.650000
vt 0.175000 0.700000
vt 0.175000 0.650000
vt 0.275000 0.700000
vt 0.325000 0.700000
vt 0.175000 0.700000
vt 0.225000 0.700000
vt 0.125000 0.550000
vt 0.140844 0.517376
vt 0.625000 0.250000
vt 0.478007 0.250000
vt 0.478007 0.200000
vt 0.478007 0.650000
vt 0.625000 0.650000
vt 0.478007 0.350000
vt 0.478007 0.300000
vt 0.625000 0.350000
vt 0.011017 0.457673
vt 0.000071 0.046267
vt 0.011017 0.046267
vt 0.478007 0.800000
vt 0.478007 0.750000
vt 0.625000 0.750000
vt 0.625000 0.800000
vt 0.625000 0.850000
vt 0.478007 0.850000
vt 0.625000 0.900000
vt 0.478007 0.900000
vt 0.625000 0.950000
vt 0.225000 0.517376
vt 0.175000 0.517376
vt 0.225000 0.500000
vt 0.175000 0.500000
vt 0.125000 0.500000
vt 0.275000 0.500000
vt 0.275000 0.517376
vt 0.375000 0.500000
vt 0.225000 0.732624
vt 0.359511 0.650000
vt 0.625000 0.550000
vt 0.625000 0.600000
vt 0.478007 0.600000
vt 0.359511 0.550000
vt 0.275000 0.750000
vt 0.325000 0.750000
vt 0.375000 0.750000
vt 0.225000 0.750000
vt 0.125000 0.750000
vt 0.125000 0.650000
vt 0.125000 0.700000
vt 0.125000 0.600000
vt 0.478007 0.050000
vt 0.478007 0.000000
vt 0.625000 0.000000
vt 0.625000 0.050000
vt 0.625000 0.100000
vt 0.478007 0.100000
vt 0.625000 0.150000
vt 0.478007 0.150000
vt 0.625000 0.200000
vt 0.625000 0.700000
vt 0.625000 0.400000
vt 0.478007 0.400000
vt 0.625000 0.450000
vt 0.478007 0.450000
vt 0.625000 0.300000
vt 0.999929 0.457674
vt 0.999929 0.481798
vt 0.975724 0.503869
vt 0.999929 0.503869
vt 0.950963 0.503869
vt 0.059201 0.503869
vt 0.950963 0.000071
vt 0.999929 0.046266
vt 0.999929 0.000071
vt 0.999929 0.022142
vt 0.975724 0.000071
vt 0.035777 0.503869
vt 0.011017 0.503869
vt 0.011017 0.481798
vt 0.035777 0.000071
vt 0.059201 0.000071
vt 0.011017 0.022142
vt 0.011017 0.000071
vt 0.000071 0.457673
vn -0.7071 0.0000 0.7071
vn -0.6507 -0.3914 0.6507
vn 0.0000 -0.3827 0.9239
vn 0.0000 -0.3827 -0.9239
vn 0.3002 -0.9054 -0.3002
vn 0.0000 -0.9239 -0.3827
vn 0.0000 -0.9239 0.3827
vn 0.3015 -0.9045 0.3015
vn -0.3015 -0.9045 0.3015
vn -0.3015 -0.9045 -0.3015
vn 0.5774 -0.5774 -0.5774
vn 0.3015 -0.9045 -0.3015
vn 0.5774 -0.5774 0.5774
vn 0.9239 -0.3827 0.0000
vn 0.6507 -0.3914 -0.6507
vn 0.7071 0.0000 -0.7071
vn 0.3827 -0.9239 0.0000
vn 0.3002 -0.9054 0.3002
vn -0.3002 -0.9054 0.3002
vn -0.3827 -0.9239 0.0000
vn -0.5774 -0.5774 0.5774
vn -0.5774 -0.5774 -0.5774
vn -0.9239 -0.3827 0.0000
vn -0.3002 -0.9054 -0.3002
vn -0.7071 0.0000 -0.7071
vn -0.6507 -0.3914 -0.6507
vn 0.8629 -0.5055 -0.0000
vn 1.0000 0.0000 0.0000
vn 0.0000 0.0000 -1.0000
vn 0.4472 0.8944 0.0000
vn 0.6507 -0.3914 0.6507
vn 0.7071 0.0000 0.7071
vn 0.0000 0.0000 1.0000
vn -1.0000 0.0000 0.0000
vn -0.0000 1.0000 0.0000
s 1
f 1/1/1 2/2/2 3/3/3
f 4/4/4 5/5/5 6/6/6
f 7/7/7 8/8/7 9/9/8
f 10/10/9 11/11/8 12/12/10
f 13/13/8 14/14/11 15/15/12
f 10/10/9 16/16/13 11/11/8
f 17/17/10 11/11/8 18/18/12
f 19/19/10 20/20/8 21/21/12
f 11/11/8 22/22/11 18/18/12
f 23/23/9 24/24/13 13/13/8
f 25/25/14 26/26/15 27/27/16
f 28/28/12 29/29/17 9/9/8
f 15/15/12 30/30/17 13/13/8
f 31/31/14 32/32/18 29/29/17
f 3/33/3 33/34/19 34/35/7
f 12/12/10 35/36/20 36/37/20
f 15/15/12 17/17/10 6/6/6
f 37/38/10 38/39/20 39/40/20
f 14/14/11 40/41/21 41/42/22
f 42/43/11 43/44/21 44/45/22
f 22/22/11 45/46/21 46/47/22
f 47/48/11 48/49/21 49/50/22
f 28/28/12 44/45/22 19/19/10
f 21/21/12 49/50/22 12/12/10
f 50/51/9 51/52/13 9/9/8
f 20/20/8 47/48/11 21/21/12
f 52/53/9 53/54/13 20/20/8
f 9/9/8 42/43/11 28/28/12
f 37/38/10 45/46/21 10/10/9
f 17/17/10 40/41/21 23/23/9
f 12/12/10 48/49/21 52/53/9
f 19/19/10 43/44/21 50/51/9
f 15/15/12 41/42/22 17/17/10
f 18/18/12 46/47/22 37/38/10
f 54/55/23 55/56/24 39/40/20
f 56/57/25 57/58/26 54/59/23
f 31/31/14 58/60/27 59/61/28
f 60/62/4 61/63/4 62/64/29
f 63/65/30 64/66/28 65/67/30
f 66/68/3 67/69/31 68/70/32
f 69/71/33 70/72/33 71/73/3
f 70/72/33 72/74/33 71/73/3
f 66/68/3 68/70/32 69/71/33
f 3/3/3 73/75/3 72/74/33
f 73/75/3 71/73/3 72/74/33
f 71/73/3 66/68/3 69/71/33
f 72/74/33 74/76/33 3/3/3
f 74/76/33 1/1/1 3/3/3
f 75/77/6 76/78/6 60/79/4
f 76/78/6 55/56/24 61/80/4
f 60/79/4 76/78/6 61/80/4
f 55/56/24 57/81/26 61/80/4
f 60/79/4 77/82/4 75/77/6
f 77/82/4 4/4/4 78/83/6
f 75/77/6 77/82/4 78/83/6
f 6/6/6 78/83/6 4/4/4
f 4/4/4 26/84/15 5/5/5
f 33/34/19 35/36/20 52/53/9
f 20/20/8 50/51/9 79/85/7
f 50/51/9 9/9/8 8/8/7
f 20/20/8 79/85/7 34/35/7
f 33/34/19 52/53/9 34/35/7
f 52/53/9 20/20/8 34/35/7
f 8/8/7 79/85/7 50/51/9
f 9/9/8 29/29/17 32/32/18
f 32/32/18 7/7/7 9/9/8
f 11/11/8 23/23/9 19/19/10
f 23/23/9 13/13/8 28/28/12
f 28/28/12 13/13/8 80/86/17
f 13/13/8 30/30/17 80/86/17
f 28/28/12 19/19/10 23/23/9
f 21/21/12 12/12/10 11/11/8
f 12/12/10 36/37/20 10/10/9
f 21/21/12 11/11/8 19/19/10
f 36/37/20 38/39/20 10/10/9
f 13/13/8 24/24/13 14/14/11
f 10/10/9 45/46/21 16/16/13
f 17/17/10 23/23/9 11/11/8
f 19/19/10 50/51/9 20/20/8
f 11/11/8 16/16/13 22/22/11
f 23/23/9 40/41/21 24/24/13
f 27/27/16 81/87/28 25/25/14
f 81/87/28 82/88/28 25/25/14
f 82/88/28 83/89/27 25/25/14
f 28/28/12 80/86/17 29/29/17
f 15/15/12 84/90/17 30/30/17
f 30/30/17 84/90/17 83/89/27
f 84/90/17 5/5/5 25/25/14
f 83/89/27 84/90/17 25/25/14
f 5/5/5 26/26/15 25/25/14
f 83/89/27 58/60/27 30/30/17
f 58/60/27 31/31/14 80/86/17
f 30/30/17 58/60/27 80/86/17
f 29/29/17 80/86/17 31/31/14
f 31/31/14 67/69/31 32/32/18
f 8/8/7 7/7/7 71/91/3
f 7/7/7 32/32/18 66/92/3
f 71/91/3 7/7/7 66/92/3
f 32/32/18 67/93/31 66/92/3
f 71/91/3 73/94/3 8/8/7
f 73/94/3 3/33/3 79/85/7
f 8/8/7 73/94/3 79/85/7
f 34/35/7 79/85/7 3/33/3
f 3/33/3 2/95/2 33/34/19
f 12/12/10 52/53/9 35/36/20
f 39/40/20 55/56/24 76/78/6
f 75/77/6 78/83/6 18/18/12
f 78/83/6 6/6/6 17/17/10
f 75/77/6 18/18/12 37/38/10
f 39/40/20 76/78/6 37/38/10
f 76/78/6 75/77/6 37/38/10
f 17/17/10 18/18/12 78/83/6
f 6/6/6 5/5/5 84/90/17
f 84/90/17 15/15/12 6/6/6
f 37/38/10 10/10/9 38/39/20
f 14/14/11 24/24/13 40/41/21
f 42/43/11 51/52/13 43/44/21
f 22/22/11 16/16/13 45/46/21
f 47/48/11 53/54/13 48/49/21
f 28/28/12 42/43/11 44/45/22
f 21/21/12 47/48/11 49/50/22
f 50/51/9 43/44/21 51/52/13
f 20/20/8 53/54/13 47/48/11
f 52/53/9 48/49/21 53/54/13
f 9/9/8 51/52/13 42/43/11
f 37/38/10 46/47/22 45/46/21
f 17/17/10 41/42/22 40/41/21
f 12/12/10 49/50/22 48/49/21
f 19/19/10 44/45/22 43/44/21
f 15/15/12 14/14/11 41/42/22
f 18/18/12 22/22/11 46/47/22
f 36/37/20 35/36/20 85/96/23
f 35/36/20 33/34/19 86/97/23
f 85/96/23 35/36/20 86/97/23
f 33/34/19 2/95/2 86/97/23
f 85/96/23 87/98/23 36/37/20
f 87/98/23 54/55/23 38/39/20
f 36/37/20 87/98/23 38/39/20
f 39/40/20 38/39/20 54/55/23
f 54/55/23 57/81/26 55/56/24
f 86/99/23 2/100/2 1/101/1
f 88/102/34 89/103/34 85/104/23
f 89/103/34 90/105/34 85/104/23
f 86/99/23 1/101/1 88/102/34
f 54/59/23 87/106/23 90/105/34
f 87/106/23 85/104/23 90/105/34
f 85/104/23 86/99/23 88/102/34
f 90/105/34 91/107/34 54/59/23
f 91/107/34 56/57/25 54/59/23
f 59/61/28 92/108/28 31/31/14
f 92/108/28 68/70/32 31/31/14
f 68/70/32 67/69/31 31/31/14
f 62/64/29 93/109/29 77/110/4
f 93/109/29 94/111/29 4/112/4
f 94/111/29 27/27/16 26/26/15
f 4/112/4 77/110/4 93/109/29
f 77/110/4 60/62/4 62/64/29
f 94/111/29 26/26/15 4/112/4
f 56/57/25 95/113/29 57/58/26
f 95/113/29 62/64/29 61/63/4
f 57/58/26 95/113/29 61/63/4
f 96/114/35 97/115/35 98/116/35
f 97/115/35 99/117/35 98/116/35
f 98/116/35 100/118/35 96/114/35
f 100/118/35 101/119/35 102/120/35
f 103/121/35 100/118/35 102/120/35
f 104/122/35 105/123/35 106/124/35
f 105/123/35 103/121/35 106/124/35
f 103/121/35 96/114/35 100/118/35
f 101/119/35 107/125/35 63/65/30
f 107/125/35 108/126/35 109/127/35
f 110/128/35 111/129/35 65/67/30
f 111/129/35 102/120/35 101/119/35
f 102/120/35 106/124/35 103/121/35
f 109/127/35 63/65/30 107/125/35
f 111/129/35 63/65/30 65/67/30
f 111/129/35 101/119/35 63/65/30
f 112/130/35 113/131/35 110/128/35
f 63/65/30 114/132/28 64/66/28
f 65/67/30 112/130/35 110/128/35
l 82 59
